<svg xmlns="http://www.w3.org/2000/svg" style="display: none;">
    <symbol id="angle-left" viewBox="0 0 256 512">
        <path d="M203.893 405.271C209.77 411.865 209.254 421.959 202.705 427.896C196.143 433.803 186.018 433.271 180.111 426.709L36.102 266.719C30.633 260.594 30.633 251.406 36.102 245.281L180.111 85.291C186.018 78.729 196.143 78.197 202.705 84.104C209.623 90.375 209.488 100.498 203.893 106.729L69.525 256L203.893 405.271Z"></path>
    </symbol>
    <symbol id="angle-right" viewBox="0 0 256 512">
        <path d="M219.9 266.7L75.89 426.7c-5.906 6.562-16.03 7.094-22.59 1.188c-6.918-6.271-6.783-16.39-1.188-22.62L186.5 256L52.11 106.7C46.23 100.1 46.75 90.04 53.29 84.1C59.86 78.2 69.98 78.73 75.89 85.29l144 159.1C225.4 251.4 225.4 260.6 219.9 266.7z"></path>
    </symbol>
    <symbol id="angle-down" viewBox="0 0 384 512">
        <path d="M362.7 203.9l-159.1 144c-6.125 5.469-15.31 5.469-21.44 0L21.29 203.9C14.73 197.1 14.2 187.9 20.1 181.3C26.38 174.4 36.5 174.5 42.73 180.1L192 314.5l149.3-134.4c6.594-5.877 16.69-5.361 22.62 1.188C369.8 187.9 369.3 197.1 362.7 203.9z"></path>
    </symbol>
    <symbol id="arrow-rotate-left" viewBox="0 0 512 512">
        <path d="M480 256c0 123.5-100.4 223.9-223.9 223.9c-69.41 0-133.9-31.3-176.7-86.05c-5.438-6.938-4.203-17 2.75-22.44c6.984-5.531 17.03-4.25 22.47 2.75C141.3 421.1 196.5 448 256 448c105.9 0 192-86.13 192-192s-86.13-192-192-192C187.1 64 124.5 100.7 90.15 160H176C184.8 160 192 167.2 192 176S184.8 192 176 192h-128C39.16 192 32 184.8 32 176v-128C32 39.16 39.16 32 48 32S64 39.16 64 48v93.56C104.4 73.87 176.6 32.11 256.1 32.11C379.6 32.11 480 132.5 480 256z"></path>
    </symbol>
    <symbol id="person-biking" viewBox="0 0 640 512">
        <path d="M336 56C336 25.07 361.1 0 392 0C422.9 0 448 25.07 448 56C448 86.93 422.9 112 392 112C361.1 112 336 86.93 336 56zM392 80C405.3 80 416 69.25 416 56C416 42.75 405.3 32 392 32C378.7 32 368 42.75 368 56C368 69.25 378.7 80 392 80zM256 384C256 454.7 198.7 512 128 512C57.31 512 0 454.7 0 384C0 313.3 57.31 256 128 256C198.7 256 256 313.3 256 384zM128 480C181 480 224 437 224 384C224 330.1 181 288 128 288C74.98 288 32 330.1 32 384C32 437 74.98 480 128 480zM640 384C640 454.7 582.7 512 512 512C441.3 512 384 454.7 384 384C384 313.3 441.3 256 512 256C582.7 256 640 313.3 640 384zM512 480C565 480 608 437 608 384C608 330.1 565 288 512 288C458.1 288 416 330.1 416 384C416 437 458.1 480 512 480zM250 217.1C242 223.9 242.7 236.4 251.4 242.4L345.1 306.8C349.4 309.8 352 314.7 352 320V416C352 424.8 344.8 432 336 432C327.2 432 320 424.8 320 416V328.4L233.2 268.8C207.3 250.9 205.3 213.3 229.2 192.8L288.2 142.1C306.6 126.4 333.7 126.8 351.6 142.9L406.1 192H480C488.8 192 496 199.2 496 208C496 216.8 488.8 224 480 224H400C396 224 392.2 222.5 389.3 219.9L330.2 166.7C324.2 161.3 315.2 161.2 309.1 166.4L250 217.1z"></path>
    </symbol>
    <symbol id="xmark" viewBox="0 0 320 512">
        <path d="M315.3 411.3c-6.253 6.253-16.37 6.253-22.63 0L160 278.6l-132.7 132.7c-6.253 6.253-16.37 6.253-22.63 0c-6.253-6.253-6.253-16.37 0-22.63L137.4 256L4.69 123.3c-6.253-6.253-6.253-16.37 0-22.63c6.253-6.253 16.37-6.253 22.63 0L160 233.4l132.7-132.7c6.253-6.253 16.37-6.253 22.63 0c6.253 6.253 6.253 16.37 0 22.63L182.6 256l132.7 132.7C321.6 394.9 321.6 405.1 315.3 411.3z"></path>
    </symbol>
</svg>