<svg xmlns="http://www.w3.org/2000/svg" style="display: none;">
    <symbol id="arrow-up-right" viewBox="0 0 320 512">
        <path d="M320 111.9v223.3c0 8.844-7.156 16-16 16s-16-7.156-16-16V150.6l-260.7 260.7C24.19 414.4 20.09 416 16 416s-8.188-1.562-11.31-4.688c-6.25-6.25-6.25-16.38 0-22.62l260.9-260.9l-185.6-.5547C71.11 127.2 63.97 120 64 111.2c.0313-8.844 7.188-15.97 16-15.97l224 .6562C312.9 95.94 320 103.1 320 111.9z"></path>
    </symbol>
    <symbol id="arrow-down-right" viewBox="0 0 320 512">
        <path d="M320 176v223.3c0 8.812-7.141 15.97-15.95 16l-224 .6562C71.23 416 64.03 408.9 64 400c-.0313-8.812 7.109-16 15.95-16.03l185.6-.5547L4.688 122.6c-6.25-6.25-6.25-16.38 0-22.62s16.38-6.25 22.62 0L288 360.6V176C288 167.2 295.2 160 304 160S320 167.2 320 176z"></path>
    </symbol>
    <symbol id="user-xmark" viewBox="0 0 640 512">
        <path d="M224 256c70.7 0 128-57.31 128-128S294.7 0 224 0C153.3 0 96 57.31 96 128S153.3 256 224 256zM224 32c52.94 0 96 43.06 96 96c0 52.93-43.06 96-96 96S128 180.9 128 128C128 75.06 171.1 32 224 32zM274.7 304H173.3C77.61 304 0 381.6 0 477.3C0 496.5 15.52 512 34.66 512h378.7C432.5 512 448 496.5 448 477.3C448 381.6 370.4 304 274.7 304zM413.3 480H34.66C33.2 480 32 478.8 32 477.3C32 399.4 95.4 336 173.3 336H274.7C352.6 336 416 399.4 416 477.3C416 478.8 414.8 480 413.3 480zM566.6 224l52.69-52.69c6.25-6.25 6.25-16.38 0-22.62s-16.38-6.25-22.62 0L544 201.4l-52.69-52.69c-6.25-6.25-16.38-6.25-22.62 0s-6.25 16.38 0 22.62L521.4 224l-52.69 52.69c-6.25 6.25-6.25 16.38 0 22.62c6.246 6.246 16.37 6.254 22.62 0L544 246.6l52.69 52.69c6.246 6.246 16.37 6.254 22.62 0c6.25-6.25 6.25-16.38 0-22.62L566.6 224z"></path>
    </symbol>
    <symbol id="plus" viewBox="0 0 448 512">
        <path d="M432 256C432 264.8 424.8 272 416 272h-176V448c0 8.844-7.156 16.01-16 16.01S208 456.8 208 448V272H32c-8.844 0-16-7.15-16-15.99C16 247.2 23.16 240 32 240h176V64c0-8.844 7.156-15.99 16-15.99S240 55.16 240 64v176H416C424.8 240 432 247.2 432 256z"></path>
    </symbol>
    <symbol id="right-from-bracket" viewBox="0 0 512 512">
        <path d="M176 448h-96C53.53 448 32 426.5 32 400v-288C32 85.53 53.53 64 80 64h96C184.8 64 192 56.84 192 48S184.8 32 176 32h-96C35.88 32 0 67.88 0 112v288C0 444.1 35.88 480 80 480h96C184.8 480 192 472.8 192 464S184.8 448 176 448zM502.6 233.4l-128-128c-9.156-9.156-22.91-11.91-34.88-6.938C327.8 103.4 320 115.1 320 128l.0918 63.1L176 192C149.5 192 128 213.5 128 240v32C128 298.5 149.5 320 176 320l144.1-.001L320 384c0 12.94 7.797 24.62 19.75 29.56c11.97 4.969 25.72 2.219 34.88-6.938l128-128C508.9 272.4 512 264.2 512 256S508.9 239.6 502.6 233.4zM352 384V288H176C167.2 288 160 280.8 160 272v-32C160 231.2 167.2 224 176 224H352l-.0039-96l128 128L352 384z"></path>
    </symbol>
    <symbol id="xmark" viewBox="0 0 320 512">
        <path d="M315.3 411.3c-6.253 6.253-16.37 6.253-22.63 0L160 278.6l-132.7 132.7c-6.253 6.253-16.37 6.253-22.63 0c-6.253-6.253-6.253-16.37 0-22.63L137.4 256L4.69 123.3c-6.253-6.253-6.253-16.37 0-22.63c6.253-6.253 16.37-6.253 22.63 0L160 233.4l132.7-132.7c6.253-6.253 16.37-6.253 22.63 0c6.253 6.253 6.253 16.37 0 22.63L182.6 256l132.7 132.7C321.6 394.9 321.6 405.1 315.3 411.3z"></path>
    </symbol>
    <symbol id="folder" viewBox="0 0 512 512">
        <path d="M447.1 96H272L226.7 50.75C214.7 38.74 198.5 32 181.5 32H63.1c-35.35 0-64 28.65-64 64v320c0 35.35 28.65 64 64 64h384c35.35 0 64-28.65 64-64V160C511.1 124.7 483.3 96 447.1 96zM480 416c0 17.64-14.36 32-32 32H64c-17.64 0-32-14.36-32-32V96c0-17.64 14.36-32 32-32h117.5c8.549 0 16.58 3.328 22.63 9.375L258.7 128H448c17.64 0 32 14.36 32 32V416z"></path>
    </symbol>
    <symbol id="folders" viewBox="0 0 640 512">
        <path d="M576 96H400L354.746 50.746C342.742 38.742 326.465 32 309.49 32H192C156.654 32 128 60.654 128 96V352C128 387.346 156.654 416 192 416H576C611.346 416 640 387.346 640 352V160C640 124.654 611.346 96 576 96ZM608 352C608 369.645 593.645 384 576 384H192C174.355 384 160 369.645 160 352V96C160 78.355 174.355 64 192 64H309.49C318.039 64 326.074 67.328 332.117 73.375L377.373 118.627L386.746 128H576C593.645 128 608 142.355 608 160V352ZM432 480H128C92.654 480 64 451.346 64 416V176C64 167.164 56.836 160 48 160S32 167.164 32 176V416C32 469.02 74.98 512 128 512H432C440.836 512 448 504.836 448 496S440.836 480 432 480Z"></path>
    </symbol>
    <symbol id="pen-to-square" viewBox="0 0 512 512">
        <path d="M386.7 22.63C411.7-2.365 452.3-2.365 477.3 22.63L489.4 34.74C514.4 59.74 514.4 100.3 489.4 125.3L269 345.6C260.6 354.1 249.9 359.1 238.2 362.7L147.6 383.6C142.2 384.8 136.6 383.2 132.7 379.3C128.8 375.4 127.2 369.8 128.4 364.4L149.3 273.8C152 262.1 157.9 251.4 166.4 242.1L386.7 22.63zM454.6 45.26C442.1 32.76 421.9 32.76 409.4 45.26L382.6 72L440 129.4L466.7 102.6C479.2 90.13 479.2 69.87 466.7 57.37L454.6 45.26zM180.5 281L165.3 346.7L230.1 331.5C236.8 330.2 242.2 327.2 246.4 322.1L417.4 152L360 94.63L189 265.6C184.8 269.8 181.8 275.2 180.5 281V281zM208 64C216.8 64 224 71.16 224 80C224 88.84 216.8 96 208 96H80C53.49 96 32 117.5 32 144V432C32 458.5 53.49 480 80 480H368C394.5 480 416 458.5 416 432V304C416 295.2 423.2 288 432 288C440.8 288 448 295.2 448 304V432C448 476.2 412.2 512 368 512H80C35.82 512 0 476.2 0 432V144C0 99.82 35.82 64 80 64H208z"></path>
    </symbol>
    <symbol id="arrows-repeat" viewBox="0 0 512 512">
        <path d="M176 112h211.8l-62.05 51.72c-6.781 5.656-7.703 15.75-2.047 22.53C326.9 190 331.4 192 336 192c3.609 0 7.234-1.219 10.23-3.719l96-80C445.9 105.3 448 100.7 448 95.1s-2.109-9.248-5.75-12.28l-96-80c-6.797-5.688-16.89-4.719-22.55 2.031c-5.656 6.781-4.734 16.88 2.047 22.53L387.8 80H176C78.95 80 0 158.1 0 255.1C0 264.8 7.156 272 16 272S32.01 264.8 32.01 256C32.01 176.6 96.59 112 176 112zM496 240c-8.844 0-16.01 7.156-16.01 16c0 79.41-64.59 144-143.1 144H124.2l62.05-51.72c6.781-5.656 7.703-15.75 2.047-22.53C182.7 319 172.6 318.1 165.8 323.7l-96 80C66.11 406.8 64 411.2 64 415.1s2.109 9.25 5.75 12.28l96 80C168.8 510.8 172.4 512 175.1 512c4.594 0 9.141-1.969 12.31-5.75c5.656-6.781 4.734-16.88-2.047-22.53L124.2 432H336c97.05 0 176-78.97 176-176C512 247.2 504.8 240 496 240z"></path>
    </symbol>
    <symbol id="triangle-exclamation" viewBox="0 0 512 512">
        <path d="M256 360c-13.25 0-23.1 10.74-23.1 24c0 13.25 10.75 24 23.1 24c13.25 0 23.1-10.75 23.1-24C280 370.7 269.3 360 256 360zM256 320c8.843 0 15.1-7.156 15.1-16V160c0-8.844-7.155-16-15.1-16S240 151.2 240 160v144C240 312.8 247.2 320 256 320zM504.3 397.3L304.5 59.38C294.4 42.27 276.2 32.03 256 32C235.8 32 217.7 42.22 207.5 59.36l-199.9 338c-10.05 16.97-10.2 37.34-.4218 54.5C17.29 469.5 35.55 480 56.1 480h399.9c20.51 0 38.75-10.53 48.81-28.17C514.6 434.7 514.4 414.3 504.3 397.3zM476.1 435.1C472.7 443.5 464.8 448 455.1 448H56.1c-8.906 0-16.78-4.484-21.08-12c-4.078-7.156-4.015-15.3 .1562-22.36L235.1 75.66C239.4 68.36 247.2 64 256 64c0 0-.0156 0 0 0c8.765 .0156 16.56 4.359 20.86 11.64l199.9 338C480.1 420.7 481.1 428.8 476.1 435.1z"></path>
    </symbol>
    <symbol id="arrows-rotate" viewBox="0 0 512 512">
        <path d="M464 32C455.2 32 448 39.16 448 48v129.3C416.2 99.72 340.6 48 256 48c-102 0-188.3 72.91-205.1 173.3C49.42 230.1 55.3 238.3 64.02 239.8C64.91 239.9 65.8 240 66.67 240c7.672 0 14.45-5.531 15.77-13.34C96.69 141.7 169.7 80 256 80c72.49 0 137.3 44.88 163.6 112H304C295.2 192 288 199.2 288 208S295.2 224 304 224h160C472.8 224 480 216.8 480 208v-160C480 39.16 472.8 32 464 32zM447.1 272.2c-8.766-1.562-16.97 4.406-18.42 13.12C415.3 370.3 342.3 432 255.1 432c-72.49 0-137.3-44.88-163.6-112H208C216.8 320 224 312.8 224 304S216.8 288 208 288h-160C39.16 288 32 295.2 32 304v160C32 472.8 39.16 480 48 480S64 472.8 64 464v-129.3C95.84 412.3 171.4 464 256 464c101.1 0 188.3-72.91 205.1-173.3C462.6 281.9 456.7 273.7 447.1 272.2z"></path>
    </symbol>
    <symbol id="folder-open" viewBox="0 0 576 512">
        <path d="M566.6 211.6C557.5 199.1 543.4 192 527.1 192H134.2C114.3 192 96.2 204.5 89.23 223.1L32 375.8V96c0-17.64 14.36-32 32-32h117.5c8.549 0 16.58 3.328 22.63 9.375L258.7 128H448c17.64 0 32 14.36 32 32h32c0-35.35-28.65-64-64-64H272L226.7 50.75C214.7 38.74 198.5 32 181.5 32H64C28.65 32 0 60.65 0 96v320c0 35.35 28.65 64 64 64h403.1c21.11 0 39.53-13.53 45.81-33.69l60-192C578.4 239.6 575.8 224 566.6 211.6zM543.2 244.8l-60 192C481.1 443.5 475 448 467.1 448H64c-3.322 0-6.357-.9551-9.373-1.898c-2.184-1.17-4.109-2.832-5.596-4.977c-3.031-4.375-3.703-9.75-1.828-14.73l72-192C121.5 228.2 127.5 224 134.2 224h393.8c5.141 0 9.844 2.375 12.89 6.516C543.9 234.7 544.8 239.9 543.2 244.8z"></path>
    </symbol>
    <symbol id="title" viewBox="0 0 48 48">
        <g fill="none" stroke="currentColor" stroke-linecap="round" stroke-width="4">
            <path stroke-linejoin="round" d="M6 8v32M24 8v32M7 24h16" />
            <path d="M32 24v16m0-8.976C32 28.46 34 26 37 26s5 2.358 5 5.024v8.99" />
        </g>
    </symbol>

    <symbol id="floppy-disk" viewBox="0 0 448 512">
        <path d="M350.062 55.438C334.938 40.328 314.875 32 293.5 32H80C35.875 32 0 67.891 0 112V400C0 444.109 35.875 480 80 480H368C412.125 480 448 444.109 448 400V186.516C448 165.141 439.688 145.047 424.562 129.938L350.062 55.438ZM96 64H288V160H96V64ZM416 400C416 426.469 394.469 448 368 448H80C53.531 448 32 426.469 32 400V112C32 91.168 45.416 73.574 64 66.947V160C64 177.672 78.326 192 96 192H288C305.674 192 320 177.672 320 160V72.02C322.664 73.777 325.166 75.791 327.438 78.063L401.938 152.563C411 161.641 416 173.688 416 186.516V400ZM224 240C179.875 240 144 275.891 144 320S179.875 400 224 400S304 364.109 304 320S268.125 240 224 240ZM224 368C197.531 368 176 346.469 176 320S197.531 272 224 272S272 293.531 272 320S250.469 368 224 368Z"></path>
    </symbol>
    <symbol id="house" viewBox="0 0 576 512">
        <path d="M576.001 256.01C576.001 251.575 574.169 247.161 570.577 244L511.947 192.266C511.949 192.172 511.999 192.094 511.999 192V48C511.999 39.156 504.843 32 495.999 32H400C391.156 32 384 39.156 384 48V79.373L298.579 4C295.563 1.344 291.782 0.016 288.001 0.016S280.438 1.344 277.422 4L5.424 244C1.832 247.161 0 251.575 0 256.01C0 264.934 7.243 271.993 16.05 271.993C19.808 271.993 23.57 270.68 26.58 268L64.002 234.982V432C64.002 476.125 99.892 512 144.001 512H432C476.109 512 511.999 476.125 511.999 432V234.982L549.421 268C552.452 270.688 556.233 272 559.999 272C568.726 272 576.001 264.947 576.001 256.01ZM416 64H479.999V164.078L416 107.608V64ZM479.999 208V432C479.999 458.469 458.468 480 432 480H144.001C117.533 480 96.002 458.469 96.002 432V208C96.002 207.623 95.812 207.309 95.787 206.938L288.001 37.344L480.214 206.938C480.189 207.309 479.999 207.623 479.999 208ZM208.421 218.625V325.375C208.421 340 220.421 352 235.046 352H341.67C356.42 352 368.42 340 368.42 325.375V218.625C368.42 204 356.42 192 341.67 192H235.046C220.421 192 208.421 204 208.421 218.625ZM240.421 224H336.42V320H240.421V224Z "></path>
    </symbol>
    <symbol id="ban" viewBox="0 0 512 512">
        <path d="M256 16C123.451 16 16 123.451 16 256S123.451 496 256 496S496 388.549 496 256S388.549 16 256 16ZM464 256C464 307.598 445.004 354.766 413.783 391.158L120.842 98.217C157.234 66.996 204.402 48 256 48C370.691 48 464 141.309 464 256ZM48 256C48 204.402 66.996 157.234 98.217 120.842L391.158 413.783C354.766 445.004 307.598 464 256 464C141.309 464 48 370.691 48 256Z"></path>
    </symbol>
    <symbol id="minus" viewBox="0 0 448 512">
        <path d="M432 256C432 264.844 424.844 272 416 272H32C23.156 272 16 264.844 16 256S23.156 240 32 240H416C424.844 240 432 247.156 432 256Z"></path>
    </symbol>
    <symbol id="play" viewBox="0 0 512 512">
        <path d="M489.031 215.047L201.031 39.047C193.365 34.367 184.697 32.016 176.012 32.016C148.396 32.016 128 54.619 128 80V432C128 457.607 148.615 480 176 480C184.688 480 193.359 477.641 201.031 472.953L489.031 296.953C503.297 288.234 512 272.719 512 256S503.297 223.766 489.031 215.047ZM472.346 269.648L184.348 445.646C181.828 447.186 178.941 448 176 448C166.117 448 160 439.695 160 432V80C160 72.312 166.121 64.016 176.012 64.016C178.961 64.016 181.848 64.826 184.346 66.352L472.344 242.352C477.066 245.236 480 250.467 480 256C480 261.531 477.066 266.762 472.346 269.648Z"></path>
    </symbol>
    <symbol id="right-to-bracket" viewBox="0 0 512 512">
        <path d="M384 256C384 247.812 380.875 239.625 374.625 233.375L246.625 105.375C237.469 96.219 223.719 93.469 211.75 98.438C199.797 103.375 192 115.062 192 128V192H48C21.492 192 0 213.492 0 240V272C0 298.508 21.492 320 48 320H192V384C192 396.938 199.797 408.625 211.75 413.562C223.719 418.531 237.469 415.781 246.625 406.625L374.625 278.625C380.875 272.375 384 264.188 384 256ZM224 384V288H48C39.176 288 32 280.82 32 272V240C32 231.18 39.176 224 48 224H224V192L223.996 128L351.996 256L224 384ZM432 32H336C327.156 32 320 39.156 320 48S327.156 64 336 64H432C458.469 64 480 85.531 480 112V400C480 426.469 458.469 448 432 448H336C327.156 448 320 455.156 320 464S327.156 480 336 480H432C476.125 480 512 444.125 512 400V112C512 67.875 476.125 32 432 32Z"></path>
    </symbol>
    <symbol id="angle-left" viewBox="0 0 256 512">
        <path d="M203.893 405.271C209.77 411.865 209.254 421.959 202.705 427.896C196.143 433.803 186.018 433.271 180.111 426.709L36.102 266.719C30.633 260.594 30.633 251.406 36.102 245.281L180.111 85.291C186.018 78.729 196.143 78.197 202.705 84.104C209.623 90.375 209.488 100.498 203.893 106.729L69.525 256L203.893 405.271Z"></path>
    </symbol>
    <symbol id="brain" viewBox="0 0 512 512">
        <path d="M512 288C512 263.857 502.998 241.08 487.162 223.652C487.721 219.799 488 215.91 488 212C488 182.371 472.104 155.666 447.992 140.729C447.998 140.32 448 139.91 448 139.5C448 108.773 431.643 81.432 406.197 66.639C398.176 28.623 364.367 0 324 0C296.072 0 271.281 13.703 256 34.736C240.719 13.703 215.928 0 188 0C147.633 0 113.826 28.623 105.805 66.639C82.363 80.266 66.635 104.543 64.301 132.303C39.896 147.215 24 174.102 24 204C24 210.295 24.705 216.52 26.086 222.582C9.588 240.127 0 263.457 0 288C0 316.602 12.498 342.877 33.381 360.746C32.467 365.783 32 370.885 32 376C32 424.082 70.76 463.281 118.676 463.99C131.043 492.225 159.256 512 192 512C218.141 512 241.393 499.398 256 479.949C270.607 499.398 293.859 512 320 512C352.746 512 380.959 492.225 393.324 463.99C441.24 463.281 480 424.082 480 376C480 370.885 479.535 365.783 478.619 360.746C499.504 342.877 512 316.602 512 288ZM240 432C240 458.51 218.51 480 192 480S144 458.51 144 432C144 429.973 144.352 428.041 144.596 426.08C137.143 429.75 128.869 432 120 432C89.072 432 64 406.928 64 376C64 365.463 67.088 355.717 72.148 347.299C48.639 337.83 32 314.898 32 288C32 264.127 45.225 243.555 64.598 232.553C59.191 224.352 56 214.557 56 204C56 178.715 74.061 157.688 97.977 153.01C96.816 148.674 96 144.201 96 139.5C96 114.666 113.289 93.984 136.455 88.521C136.322 87.008 136 85.549 136 84C136 55.281 159.281 32 188 32S240 55.281 240 84V432ZM439.852 347.299C444.912 355.717 448 365.463 448 376C448 406.928 422.928 432 392 432C383.131 432 374.857 429.75 367.404 426.08C367.648 428.041 368 429.973 368 432C368 458.51 346.51 480 320 480S272 458.51 272 432V84C272 55.281 295.281 32 324 32S376 55.281 376 84C376 85.549 375.678 87.008 375.545 88.521C398.711 93.984 416 114.666 416 139.5C416 147.08 414.324 154.242 411.434 160.75C436.6 164.385 456 185.828 456 212C456 220.047 454.018 227.572 450.756 234.373C468.322 245.781 480 265.49 480 288C480 314.898 463.361 337.83 439.852 347.299Z"></path>
    </symbol>
    <symbol id="brain-circuit" viewBox="0 0 512 512">
        <path d="M122.7 471.1C121.8 471.1 120.9 472 120 472C71.4 472 32 432.6 32 384C32 376.4 32.97 369 34.79 361.1C13.56 344.4 0 317.8 0 288C0 262.9 9.646 240 25.4 222.1C24.48 218.1 24 213.1 24 208C24 178.4 40.12 152.5 64.04 138.7C64.01 137.8 64 136.9 64 136C64 102.4 84.73 73.63 114.1 61.79C122.3 26.37 154.1 0 192 0C218.2 0 241.4 12.57 256 31.99C270.6 12.57 293.8 0 320 0C357.9 0 389.7 26.37 397.9 61.79C427.3 73.63 448 102.4 448 136C448 136.9 447.1 137.8 447.1 138.7C471.9 152.5 488 178.4 488 208C488 213.1 487.5 218.1 486.6 222.1C502.4 240 512 262.9 512 288C512 317.8 498.4 344.4 477.2 361.1C479 369 480 376.4 480 384C480 432.6 440.6 472 392 472C391.1 472 390.2 471.1 389.3 471.1C375.5 495.9 349.6 512 320 512C293.8 512 270.6 499.4 256 480C241.4 499.4 218.2 512 192 512C162.4 512 136.5 495.9 122.7 471.1zM192 32C167 32 146.5 51.08 144.2 75.44L143.2 86.69L132.2 89.46C111.4 94.71 96 113.6 96 136C96 139.1 96.3 142.2 96.87 145.2L99.41 158.3L86.87 163.1C68.79 170 55.1 187.6 55.1 208C55.1 213.2 56.84 218.3 58.37 222.1L61.65 232.1L53.74 239.9C40.38 251.7 31.1 268.9 31.1 288C31.1 310.9 44.01 331 62.16 342.3L73.75 349.6L68.42 362.2C65.58 368.8 63.1 376.2 63.1 384C63.1 414.9 89.07 440 119.1 440C123.3 440 126.5 439.7 129.5 439.2L142.5 436.1L147.2 449.2C154.1 467.3 171.6 480 191.1 480C218.5 480 239.1 458.5 239.1 432V304H191.1C184.7 304 178.5 308.9 176.6 315.6C190.4 321.9 199.1 335.8 199.1 352C199.1 374.1 182.1 392 159.1 392C137.9 392 119.1 374.1 119.1 352C119.1 335.5 129.1 321.3 144.2 315.2C146.6 290.1 167.1 272 191.1 272H239.1V160H212.7C206.5 174.1 192.4 184 175.1 184C153.9 184 135.1 166.1 135.1 144C135.1 121.9 153.9 104 175.1 104C192.4 104 206.5 113.9 212.7 128H239.1V80C239.1 53.49 218.5 32 191.1 32L192 32zM272 352H331.3C337.5 337.9 351.6 328 368 328C390.1 328 408 345.9 408 368C408 390.1 390.1 408 368 408C351.6 408 337.5 398.1 331.3 384H272V432C272 458.5 293.5 480 320 480C340.4 480 357.9 467.2 364.8 449.2L369.5 436.1L382.5 439.2C385.5 439.7 388.7 440 392 440C422.9 440 448 414.9 448 384C448 376.2 446.4 368.8 443.6 362.2L438.2 349.6L449.8 342.3C467.1 331 480 310.9 480 287.1C480 268.9 471.6 251.7 458.3 239.9L450.3 232.1L453.6 222.1C455.2 218.3 456 213.2 456 207.1C456 187.6 443.2 170 425.1 163.1L412.6 158.3L415.1 145.2C415.7 142.2 416 139.1 416 135.1C416 113.6 400.6 94.71 379.8 89.46L368.8 86.69L367.8 75.44C365.5 51.08 344.1 31.1 320 31.1C293.5 31.1 272 53.49 272 79.1V127.1H320C346.5 127.1 368 149.5 368 175.1V187.3C382.1 193.5 392 207.6 392 223.1C392 246.1 374.1 263.1 352 263.1C329.9 263.1 312 246.1 312 223.1C312 207.6 321.9 193.5 336 187.3V175.1C336 167.2 328.8 159.1 320 159.1H272L272 352zM176 160C184.8 160 192 152.8 192 144C192 135.2 184.8 128 176 128C167.2 128 160 135.2 160 144C160 152.8 167.2 160 176 160zM160 368C168.8 368 176 360.8 176 352C176 343.2 168.8 336 160 336C151.2 336 144 343.2 144 352C144 360.8 151.2 368 160 368zM368 224C368 215.2 360.8 208 352 208C343.2 208 336 215.2 336 224C336 232.8 343.2 240 352 240C360.8 240 368 232.8 368 224zM368 384C376.8 384 384 376.8 384 368C384 359.2 376.8 352 368 352C359.2 352 352 359.2 352 368C352 376.8 359.2 384 368 384z"></path>
    </symbol>
    <symbol id="cards-blank" viewBox="0 0 640 512">
        <path d="M174.8 484.7C174.7 484.5 174.5 484.2 174.3 483.9L7.629 195.2C7.464 194.9 7.302 194.6 7.142 194.3C-7.774 167.8 1.408 134.1 27.85 118.8L220.7 7.468C247.3-7.906 281.4 1.218 296.8 27.85L463.8 317.1C479.1 343.6 470.1 377.5 443.8 392.1C443.6 393.1 443.3 393.2 443.1 393.4L250.8 504.4C250.6 504.5 250.4 504.6 250.1 504.8C223.8 519.7 190.3 510.8 174.8 484.7V484.7zM234.4 476.9L234.5 476.8L427.4 365.5L427.5 365.4C438.7 358.7 442.5 344.2 435.9 332.9L269.2 44.13C262.6 32.66 247.9 28.72 236.4 35.35L44.13 146.4C32.8 152.9 28.82 167.3 35.09 178.7L35.18 178.9L202.2 468.2C202.2 468.2 202.3 468.3 202.3 468.3C208.1 479.3 223.2 483.1 234.4 476.9V476.9zM357.3 479.8C358.2 479.9 359.1 480 360 480H584C597.3 480 608 469.3 608 456V119.1C608 106.7 597.3 95.1 584 95.1H373L354.7 64.25C356.5 64.08 358.2 63.1 360 63.1H584C614.9 63.1 640 89.07 640 119.1V456C640 486.9 614.9 512 584 512H360C346.4 512 333.8 507.1 324.1 498.1L357.3 479.8z"></path>
    </symbol>
    <symbol id="ballot-check" viewBox="0 0 448 512">
        <path d="M96 360c-13.25 0-24 10.74-24 24c0 13.25 10.75 24 24 24c13.26 0 24-10.75 24-24C120 370.7 109.3 360 96 360zM352 368H176C167.2 368 160 375.2 160 384s7.156 16 16 16H352c8.844 0 16-7.156 16-16S360.8 368 352 368zM101.3 288c4.094 0 8.188-1.562 11.31-4.688l58.67-58.67c6.25-6.25 6.25-16.38 0-22.62s-16.38-6.25-22.62 0L101.3 249.4L83.31 231.4c-6.25-6.25-16.38-6.25-22.62 0s-6.25 16.38 0 22.62l29.33 29.33C93.14 286.4 97.23 288 101.3 288zM96 152c13.26 0 24-10.75 24-24c0-13.26-10.74-24-24-24C82.75 104 72 114.7 72 128C72 141.3 82.75 152 96 152zM352 240H208C199.2 240 192 247.2 192 256s7.156 16 16 16H352c8.844 0 16-7.156 16-16S360.8 240 352 240zM384 0H64C28.65 0 0 28.65 0 64v384c0 35.35 28.65 64 64 64h320c35.35 0 64-28.65 64-64V64C448 28.65 419.3 0 384 0zM416 448c0 17.64-14.36 32-32 32H64c-17.64 0-32-14.36-32-32V64c0-17.64 14.36-32 32-32h320c17.64 0 32 14.36 32 32V448zM352 112H176C167.2 112 160 119.2 160 128s7.156 16 16 16H352c8.844 0 16-7.156 16-16S360.8 112 352 112z"></path>
    </symbol>
    <symbol id="copy" viewBox="0 0 512 512">
        <path d="M272 416C263.2 416 256 423.2 256 432V448c0 17.67-14.33 32-32 32H64c-17.67 0-32-14.33-32-32V192c0-17.67 14.33-32 32-32h112C184.8 160 192 152.8 192 144C192 135.2 184.8 128 176 128H63.99c-35.35 0-64 28.65-64 64l.0098 256C0 483.3 28.65 512 64 512h160c35.35 0 64-28.65 64-64v-16C288 423.2 280.8 416 272 416zM502.6 86.63l-77.25-77.25C419.4 3.371 411.2 0 402.7 0H288C252.7 0 224 28.65 224 64v256c0 35.35 28.65 64 64 64h160c35.35 0 64-28.65 64-64V109.3C512 100.8 508.6 92.63 502.6 86.63zM416 45.25L466.7 96H416V45.25zM480 320c0 17.67-14.33 32-32 32h-160c-17.67 0-32-14.33-32-32V64c0-17.67 14.33-32 32-32h96l.0026 64c0 17.67 14.33 32 32 32H480V320z"></path>
    </symbol>
</svg>