<svg xmlns="http://www.w3.org/2000/svg" style="display: none;">
    <symbol id="angle-left" viewBox="0 0 256 512">
        <path d="M203.893 405.271C209.77 411.865 209.254 421.959 202.705 427.896C196.143 433.803 186.018 433.271 180.111 426.709L36.102 266.719C30.633 260.594 30.633 251.406 36.102 245.281L180.111 85.291C186.018 78.729 196.143 78.197 202.705 84.104C209.623 90.375 209.488 100.498 203.893 106.729L69.525 256L203.893 405.271Z" />
    </symbol>
    <symbol id="angle-right" viewBox="0 0 256 512">
        <path d="M219.9 266.7L75.89 426.7c-5.906 6.562-16.03 7.094-22.59 1.188c-6.918-6.271-6.783-16.39-1.188-22.62L186.5 256L52.11 106.7C46.23 100.1 46.75 90.04 53.29 84.1C59.86 78.2 69.98 78.73 75.89 85.29l144 159.1C225.4 251.4 225.4 260.6 219.9 266.7z" />
    </symbol>
    <symbol id="angle-down" viewBox="0 0 384 512">
        <path d="M362.7 203.9l-159.1 144c-6.125 5.469-15.31 5.469-21.44 0L21.29 203.9C14.73 197.1 14.2 187.9 20.1 181.3C26.38 174.4 36.5 174.5 42.73 180.1L192 314.5l149.3-134.4c6.594-5.877 16.69-5.361 22.62 1.188C369.8 187.9 369.3 197.1 362.7 203.9z" />
    </symbol>
    <symbol id="arrow-rotate-left" viewBox="0 0 512 512">
        <path d="M480 256c0 123.5-100.4 223.9-223.9 223.9c-69.41 0-133.9-31.3-176.7-86.05c-5.438-6.938-4.203-17 2.75-22.44c6.984-5.531 17.03-4.25 22.47 2.75C141.3 421.1 196.5 448 256 448c105.9 0 192-86.13 192-192s-86.13-192-192-192C187.1 64 124.5 100.7 90.15 160H176C184.8 160 192 167.2 192 176S184.8 192 176 192h-128C39.16 192 32 184.8 32 176v-128C32 39.16 39.16 32 48 32S64 39.16 64 48v93.56C104.4 73.87 176.6 32.11 256.1 32.11C379.6 32.11 480 132.5 480 256z" />
    </symbol>
    <symbol id="person-biking" viewBox="0 0 640 512">
        <path d="M336 56C336 25.07 361.1 0 392 0C422.9 0 448 25.07 448 56C448 86.93 422.9 112 392 112C361.1 112 336 86.93 336 56zM392 80C405.3 80 416 69.25 416 56C416 42.75 405.3 32 392 32C378.7 32 368 42.75 368 56C368 69.25 378.7 80 392 80zM256 384C256 454.7 198.7 512 128 512C57.31 512 0 454.7 0 384C0 313.3 57.31 256 128 256C198.7 256 256 313.3 256 384zM128 480C181 480 224 437 224 384C224 330.1 181 288 128 288C74.98 288 32 330.1 32 384C32 437 74.98 480 128 480zM640 384C640 454.7 582.7 512 512 512C441.3 512 384 454.7 384 384C384 313.3 441.3 256 512 256C582.7 256 640 313.3 640 384zM512 480C565 480 608 437 608 384C608 330.1 565 288 512 288C458.1 288 416 330.1 416 384C416 437 458.1 480 512 480zM250 217.1C242 223.9 242.7 236.4 251.4 242.4L345.1 306.8C349.4 309.8 352 314.7 352 320V416C352 424.8 344.8 432 336 432C327.2 432 320 424.8 320 416V328.4L233.2 268.8C207.3 250.9 205.3 213.3 229.2 192.8L288.2 142.1C306.6 126.4 333.7 126.8 351.6 142.9L406.1 192H480C488.8 192 496 199.2 496 208C496 216.8 488.8 224 480 224H400C396 224 392.2 222.5 389.3 219.9L330.2 166.7C324.2 161.3 315.2 161.2 309.1 166.4L250 217.1z" />
    </symbol>
    <symbol id="xmark" viewBox="0 0 320 512">
        <path d="M315.3 411.3c-6.253 6.253-16.37 6.253-22.63 0L160 278.6l-132.7 132.7c-6.253 6.253-16.37 6.253-22.63 0c-6.253-6.253-6.253-16.37 0-22.63L137.4 256L4.69 123.3c-6.253-6.253-6.253-16.37 0-22.63c6.253-6.253 16.37-6.253 22.63 0L160 233.4l132.7-132.7c6.253-6.253 16.37-6.253 22.63 0c6.253 6.253 6.253 16.37 0 22.63L182.6 256l132.7 132.7C321.6 394.9 321.6 405.1 315.3 411.3z" />
    </symbol>
    <symbol id="circle-check" viewBox="0 0 512 512">
        <path d="M235.3 331.3C229.1 337.6 218.9 337.6 212.7 331.3L148.7 267.3C142.4 261.1 142.4 250.9 148.7 244.7C154.9 238.4 165.1 238.4 171.3 244.7L224 297.4L340.7 180.7C346.9 174.4 357.1 174.4 363.3 180.7C369.6 186.9 369.6 197.1 363.3 203.3L235.3 331.3zM512 256C512 397.4 397.4 512 256 512C114.6 512 0 397.4 0 256C0 114.6 114.6 0 256 0C397.4 0 512 114.6 512 256zM256 32C132.3 32 32 132.3 32 256C32 379.7 132.3 480 256 480C379.7 480 480 379.7 480 256C480 132.3 379.7 32 256 32z" />
    </symbol>
    <symbol id="calendar-arrow-down" viewBox="0 0 448 512">
        <path d="M240 377.4L292.7 324.7C298.9 318.4 309.1 318.4 315.3 324.7C321.6 330.9 321.6 341.1 315.3 347.3L235.3 427.3C229.1 433.6 218.9 433.6 212.7 427.3L132.7 347.3C126.4 341.1 126.4 330.9 132.7 324.7C138.9 318.4 149.1 318.4 155.3 324.7L208 377.4V256C208 247.2 215.2 240 224 240C232.8 240 240 247.2 240 256L240 377.4zM128 64H320V16C320 7.164 327.2 0 336 0C344.8 0 352 7.164 352 16V64H384C419.3 64 448 92.65 448 128V448C448 483.3 419.3 512 384 512H64C28.65 512 0 483.3 0 448V128C0 92.65 28.65 64 64 64H96V16C96 7.164 103.2 0 112 0C120.8 0 128 7.164 128 16V64zM32 448C32 465.7 46.33 480 64 480H384C401.7 480 416 465.7 416 448V192H32V448zM32 128V160H416V128C416 110.3 401.7 96 384 96H64C46.33 96 32 110.3 32 128z" />
    </symbol>
    <symbol id="calendar-arrow-up" viewBox="0 0 448 512">
        <path d="M208 294.6L155.3 347.3C149.1 353.6 138.9 353.6 132.7 347.3C126.4 341.1 126.4 330.9 132.7 324.7L212.7 244.7C218.9 238.4 229.1 238.4 235.3 244.7L315.3 324.7C321.6 330.9 321.6 341.1 315.3 347.3C309.1 353.6 298.9 353.6 292.7 347.3L240 294.6V416C240 424.8 232.8 432 223.1 432C215.2 432 207.1 424.8 207.1 416L208 294.6zM128 64H320V16C320 7.164 327.2 0 336 0C344.8 0 352 7.164 352 16V64H384C419.3 64 448 92.65 448 128V448C448 483.3 419.3 512 384 512H64C28.65 512 0 483.3 0 448V128C0 92.65 28.65 64 64 64H96V16C96 7.164 103.2 0 112 0C120.8 0 128 7.164 128 16V64zM32 448C32 465.7 46.33 480 64 480H384C401.7 480 416 465.7 416 448V192H32V448zM32 128V160H416V128C416 110.3 401.7 96 384 96H64C46.33 96 32 110.3 32 128z" />
    </symbol>
    <symbol id="chart-waterfall" viewBox="0 0 512 512">
        <path d="M16 32C24.84 32 32 39.16 32 48V400C32 426.5 53.49 448 80 448H496C504.8 448 512 455.2 512 464C512 472.8 504.8 480 496 480H80C35.82 480 0 444.2 0 400V48C0 39.16 7.164 32 16 32zM144 224C152.8 224 160 231.2 160 240V336C160 344.8 152.8 352 144 352C135.2 352 128 344.8 128 336V240C128 231.2 135.2 224 144 224zM256 240C256 248.8 248.8 256 240 256C231.2 256 224 248.8 224 240V144C224 135.2 231.2 128 240 128C248.8 128 256 135.2 256 144V240zM336 64C344.8 64 352 71.16 352 80V176C352 184.8 344.8 192 336 192C327.2 192 320 184.8 320 176V80C320 71.16 327.2 64 336 64zM448 336C448 344.8 440.8 352 432 352C423.2 352 416 344.8 416 336V80C416 71.16 423.2 64 432 64C440.8 64 448 71.16 448 80V336z" />
    </symbol>
    <symbol id="circle-info" viewBox="0 0 512 512">
        <path d="M256 0C114.6 0 0 114.6 0 256s114.6 256 256 256s256-114.6 256-256S397.4 0 256 0zM256 480c-123.5 0-224-100.5-224-224s100.5-224 224-224s224 100.5 224 224S379.5 480 256 480zM256 184c13.25 0 24-10.74 24-24c0-13.25-10.75-24-24-24S232 146.7 232 160C232 173.3 242.7 184 256 184zM304 352h-32V240C272 231.2 264.8 224 256 224H224C215.2 224 208 231.2 208 240S215.2 256 224 256h16v96h-32C199.2 352 192 359.2 192 368C192 376.8 199.2 384 208 384h96c8.836 0 16-7.164 16-16C320 359.2 312.8 352 304 352z" />
    </symbol>
    <symbol id="calendar-arrow-down" viewBox="0 0 448 512">
        <path d="M240 377.4L292.7 324.7C298.9 318.4 309.1 318.4 315.3 324.7C321.6 330.9 321.6 341.1 315.3 347.3L235.3 427.3C229.1 433.6 218.9 433.6 212.7 427.3L132.7 347.3C126.4 341.1 126.4 330.9 132.7 324.7C138.9 318.4 149.1 318.4 155.3 324.7L208 377.4V256C208 247.2 215.2 240 224 240C232.8 240 240 247.2 240 256L240 377.4zM128 64H320V16C320 7.164 327.2 0 336 0C344.8 0 352 7.164 352 16V64H384C419.3 64 448 92.65 448 128V448C448 483.3 419.3 512 384 512H64C28.65 512 0 483.3 0 448V128C0 92.65 28.65 64 64 64H96V16C96 7.164 103.2 0 112 0C120.8 0 128 7.164 128 16V64zM32 448C32 465.7 46.33 480 64 480H384C401.7 480 416 465.7 416 448V192H32V448zM32 128V160H416V128C416 110.3 401.7 96 384 96H64C46.33 96 32 110.3 32 128z" />
    </symbol>
    <symbol id="calendar-arrow-up" viewBox="0 0 448 512">
        <path d="M208 294.6L155.3 347.3C149.1 353.6 138.9 353.6 132.7 347.3C126.4 341.1 126.4 330.9 132.7 324.7L212.7 244.7C218.9 238.4 229.1 238.4 235.3 244.7L315.3 324.7C321.6 330.9 321.6 341.1 315.3 347.3C309.1 353.6 298.9 353.6 292.7 347.3L240 294.6V416C240 424.8 232.8 432 223.1 432C215.2 432 207.1 424.8 207.1 416L208 294.6zM128 64H320V16C320 7.164 327.2 0 336 0C344.8 0 352 7.164 352 16V64H384C419.3 64 448 92.65 448 128V448C448 483.3 419.3 512 384 512H64C28.65 512 0 483.3 0 448V128C0 92.65 28.65 64 64 64H96V16C96 7.164 103.2 0 112 0C120.8 0 128 7.164 128 16V64zM32 448C32 465.7 46.33 480 64 480H384C401.7 480 416 465.7 416 448V192H32V448zM32 128V160H416V128C416 110.3 401.7 96 384 96H64C46.33 96 32 110.3 32 128z" />
    </symbol>
    <symbol id="lightbulb" viewBox="0 0 384 512">
        <path d="M255.9 415.1H128.1c-8.846 0-15.98 7.179-15.97 16.03L112.1 454.3c.0098 6.273 1.81 12.47 5.284 17.69l17.14 25.69c5.225 7.855 17.2 14.28 26.64 14.28h61.67c9.418 0 21.39-6.436 26.61-14.28l17.08-25.68c2.953-4.441 5.341-12.37 5.348-17.7l-.0521-22.33C271.8 423.2 264.7 415.1 255.9 415.1zM239.9 454.4l-16.11 24.45c-.4766 .4336-1.686 1.082-.8672 1.117l-60.29 .1172c-.4238-.1055-1.138-.2793-1.423-.2793c-.1406 0-.1348-.2265 0 0l-17.1-25.48l-.0098-6.37h95.94l.0039 5.179C239.9 453.6 239.7 454.4 239.9 454.4C239.9 454.4 239.8 454.5 239.9 454.4zM315.8 51.3c-33.33-33.22-78.22-52.47-124.3-51.28C94.7 .2944 16 79.89 16 177.4c0 42.9 15.47 84.34 43.55 116.6c13.33 15.31 35.84 49.59 43.73 76.02c1.078 8.687 8.844 14.62 17.64 13.72c8.703-.9687 14.98-8.968 14.11-17.65l-.6094-3.312c-10.31-34.97-36-72.84-50.73-89.77C60.67 246.5 48 212.6 48 177.4c0-81.24 63.05-145.1 143.5-145.3H192c38.13 0 74.05 14.87 101.2 41.93C320.8 101.5 336 138.2 336 177.4c0 35.18-12.67 69.15-35.67 95.62c-14.75 16.94-40.44 54.81-50.75 89.77l-.625 3.343c-1.047 8.749 4.938 17.59 13.67 18.69c.7813 .0938 1.531 .1562 2.281 .1562c7.797 0 14.36-5.124 15.36-13.12c8.344-28.25 30.86-62.52 44.2-77.84C352.5 261.7 368 220.3 368 177.4C368 129.7 349.5 84.89 315.8 51.3zM208 80.01c0-8.843-7.156-16-16-16c-61.75 0-112 50.24-112 111.1C80 184.8 87.16 192 96 192s16-7.158 16-16c0-44.1 35.88-79.1 80-79.1C200.8 96.01 208 88.86 208 80.01z" />
    </symbol>
    <symbol id="badge-check" viewBox="0 0 512 512">
        <path d="M235.3 331.3C229.1 337.6 218.9 337.6 212.7 331.3L156.7 275.3C150.4 269.1 150.4 258.9 156.7 252.7C162.9 246.4 173.1 246.4 179.3 252.7L224 297.4L324.7 196.7C330.9 190.4 341.1 190.4 347.3 196.7C353.6 202.9 353.6 213.1 347.3 219.3L235.3 331.3zM343.1 45.63C376.1 39.67 411.5 49.43 437 74.98C462.6 100.5 472.3 135.9 466.4 168.9C493.9 187.1 512 219.9 512 255.1C512 292.1 493.9 324 466.4 343.1C472.3 376.1 462.6 411.5 437 437C411.5 462.6 376.1 472.3 343.1 466.4C324 493.9 292.1 512 256 512C219.9 512 187.1 493.9 168.9 466.4C135.9 472.3 100.5 462.6 74.98 437C49.43 411.5 39.67 376.1 45.63 343.1C18.08 324 0 292.1 0 255.1C0 219.9 18.08 187.1 45.63 168.9C39.67 135.9 49.43 100.5 74.98 74.98C100.5 49.43 135.9 39.67 168.9 45.63C187.1 18.08 219.9 0 255.1 0C292.1 0 324 18.08 343.1 45.63L343.1 45.63zM184.4 83.08L171.7 79.2C146.3 71.4 117.6 77.57 97.61 97.61C77.57 117.6 71.4 146.3 79.2 171.7L83.08 184.4L71.4 190.6C47.93 203 32 227.7 32 255.1C32 284.3 47.93 308.1 71.4 321.4L83.08 327.6L79.2 340.3C71.4 365.7 77.57 394.3 97.61 414.4C117.6 434.4 146.3 440.6 171.7 432.8L184.4 428.9L190.6 440.6C203 464.1 227.7 480 256 480C284.3 480 308.1 464.1 321.4 440.6L327.6 428.9L340.3 432.8C365.7 440.6 394.3 434.4 414.4 414.4C434.4 394.3 440.6 365.7 432.8 340.3L428.9 327.6L440.6 321.4C464.1 308.1 480 284.3 480 255.1C480 227.7 464.1 203 440.6 190.6L428.9 184.4L432.8 171.7C440.6 146.3 434.4 117.6 414.4 97.6C394.4 77.56 365.7 71.4 340.3 79.2L327.6 83.08L321.4 71.4C308.1 47.93 284.3 31.1 256 31.1C227.7 31.1 203 47.93 190.6 71.4L184.4 83.08z" />
    </symbol>
    <symbol id="sensor-triangle-exclamation" viewBox="0 0 640 512">
        <path d="M224 144l-.0045 128C223.1 280.9 231.1 288 240 288S256 280.9 256 272v-128C256 135.1 248.9 128 240 128S224 135.1 224 144zM160 144l-.0031 128C159.1 280.9 167.1 288 176 288s15.1-7.125 15.1-16L192 144C192 135.1 184.9 128 176 128S160 135.1 160 144zM233.9 448H64c-17.62 0-32-14.38-32-32V96c0-17.62 14.38-32 32-32h320c17.62 0 32 14.38 32 32v5C426.4 97.75 437.1 96 447.1 96c0-35.38-28.62-64-63.1-64H63.1C28.62 32-.0035 60.63-.0035 96v320c0 35.38 28.62 64 63.1 64H254.5c-6.25-6.375-11.75-13.62-16.25-21.25C236.4 455.3 235.4 451.5 233.9 448zM629.1 368.3l-117.3-203C499.3 142.3 474.6 128 448 128s-51.28 14.25-64.66 37.25l-117.3 203c-13.38 23.12-13.38 51.5 0 74.5C279.4 465.9 303.9 480 330.6 480h234.9c26.64 0 51.15-14.12 64.53-37.25C643.3 419.8 643.3 391.4 629.1 368.3zM565.4 448h-234.8c-32.75 0-53.25-35.38-36.88-63.75l117.4-203C418.8 168.1 432.8 160 448 160s29.25 8.125 36.88 21.25l117.4 203C618.6 412.6 598.1 448 565.4 448zM96 144l-.0017 128C95.1 280.9 103.1 288 112 288s15.1-7.125 15.1-16L128 144C128 135.1 120.9 128 112 128S96 135.1 96 144zM448 376c-13.25 0-24 10.74-24 24c0 13.25 10.75 24 24 24s24-10.75 24-24C472 386.7 461.3 376 448 376zM447.1 352C456.8 352 464 344.8 464 336v-96C464 231.2 456.8 224 448 224s-16 7.156-16 16v96C432 344.8 439.1 352 447.1 352z" />
    </symbol>
</svg>