<svg xmlns="http://www.w3.org/2000/svg" style="display: none;">
    <symbol id="angle-left" viewBox="0 0 256 512">
        <path d="M203.893 405.271C209.77 411.865 209.254 421.959 202.705 427.896C196.143 433.803 186.018 433.271 180.111 426.709L36.102 266.719C30.633 260.594 30.633 251.406 36.102 245.281L180.111 85.291C186.018 78.729 196.143 78.197 202.705 84.104C209.623 90.375 209.488 100.498 203.893 106.729L69.525 256L203.893 405.271Z" />
    </symbol>
    <symbol id="angle-right" viewBox="0 0 256 512">
        <path d="M219.9 266.7L75.89 426.7c-5.906 6.562-16.03 7.094-22.59 1.188c-6.918-6.271-6.783-16.39-1.188-22.62L186.5 256L52.11 106.7C46.23 100.1 46.75 90.04 53.29 84.1C59.86 78.2 69.98 78.73 75.89 85.29l144 159.1C225.4 251.4 225.4 260.6 219.9 266.7z" />
    </symbol>
    <symbol id="angle-down" viewBox="0 0 384 512">
        <path d="M362.7 203.9l-159.1 144c-6.125 5.469-15.31 5.469-21.44 0L21.29 203.9C14.73 197.1 14.2 187.9 20.1 181.3C26.38 174.4 36.5 174.5 42.73 180.1L192 314.5l149.3-134.4c6.594-5.877 16.69-5.361 22.62 1.188C369.8 187.9 369.3 197.1 362.7 203.9z" />
    </symbol>
    <symbol id="arrow-rotate-left" viewBox="0 0 512 512">
        <path d="M480 256c0 123.5-100.4 223.9-223.9 223.9c-69.41 0-133.9-31.3-176.7-86.05c-5.438-6.938-4.203-17 2.75-22.44c6.984-5.531 17.03-4.25 22.47 2.75C141.3 421.1 196.5 448 256 448c105.9 0 192-86.13 192-192s-86.13-192-192-192C187.1 64 124.5 100.7 90.15 160H176C184.8 160 192 167.2 192 176S184.8 192 176 192h-128C39.16 192 32 184.8 32 176v-128C32 39.16 39.16 32 48 32S64 39.16 64 48v93.56C104.4 73.87 176.6 32.11 256.1 32.11C379.6 32.11 480 132.5 480 256z" />
    </symbol>
    <symbol id="person-biking" viewBox="0 0 640 512">
        <path d="M336 56C336 25.07 361.1 0 392 0C422.9 0 448 25.07 448 56C448 86.93 422.9 112 392 112C361.1 112 336 86.93 336 56zM392 80C405.3 80 416 69.25 416 56C416 42.75 405.3 32 392 32C378.7 32 368 42.75 368 56C368 69.25 378.7 80 392 80zM256 384C256 454.7 198.7 512 128 512C57.31 512 0 454.7 0 384C0 313.3 57.31 256 128 256C198.7 256 256 313.3 256 384zM128 480C181 480 224 437 224 384C224 330.1 181 288 128 288C74.98 288 32 330.1 32 384C32 437 74.98 480 128 480zM640 384C640 454.7 582.7 512 512 512C441.3 512 384 454.7 384 384C384 313.3 441.3 256 512 256C582.7 256 640 313.3 640 384zM512 480C565 480 608 437 608 384C608 330.1 565 288 512 288C458.1 288 416 330.1 416 384C416 437 458.1 480 512 480zM250 217.1C242 223.9 242.7 236.4 251.4 242.4L345.1 306.8C349.4 309.8 352 314.7 352 320V416C352 424.8 344.8 432 336 432C327.2 432 320 424.8 320 416V328.4L233.2 268.8C207.3 250.9 205.3 213.3 229.2 192.8L288.2 142.1C306.6 126.4 333.7 126.8 351.6 142.9L406.1 192H480C488.8 192 496 199.2 496 208C496 216.8 488.8 224 480 224H400C396 224 392.2 222.5 389.3 219.9L330.2 166.7C324.2 161.3 315.2 161.2 309.1 166.4L250 217.1z" />
    </symbol>
    <symbol id="xmark" viewBox="0 0 320 512">
        <path d="M315.3 411.3c-6.253 6.253-16.37 6.253-22.63 0L160 278.6l-132.7 132.7c-6.253 6.253-16.37 6.253-22.63 0c-6.253-6.253-6.253-16.37 0-22.63L137.4 256L4.69 123.3c-6.253-6.253-6.253-16.37 0-22.63c6.253-6.253 16.37-6.253 22.63 0L160 233.4l132.7-132.7c6.253-6.253 16.37-6.253 22.63 0c6.253 6.253 6.253 16.37 0 22.63L182.6 256l132.7 132.7C321.6 394.9 321.6 405.1 315.3 411.3z" />
    </symbol>
    <symbol id="grip-dots-vertical" viewBox="0 0 256 512">
        <path d="M64 128C64 145.7 49.67 160 32 160C14.33 160 0 145.7 0 128C0 110.3 14.33 96 32 96C49.67 96 64 110.3 64 128zM32 352C49.67 352 64 366.3 64 384C64 401.7 49.67 416 32 416C14.33 416 0 401.7 0 384C0 366.3 14.33 352 32 352zM32 224C49.67 224 64 238.3 64 256C64 273.7 49.67 288 32 288C14.33 288 0 273.7 0 256C0 238.3 14.33 224 32 224zM224 128C224 145.7 209.7 160 192 160C174.3 160 160 145.7 160 128C160 110.3 174.3 96 192 96C209.7 96 224 110.3 224 128zM192 352C209.7 352 224 366.3 224 384C224 401.7 209.7 416 192 416C174.3 416 160 401.7 160 384C160 366.3 174.3 352 192 352zM192 224C209.7 224 224 238.3 224 256C224 273.7 209.7 288 192 288C174.3 288 160 273.7 160 256C160 238.3 174.3 224 192 224z" />
    </symbol>
    <symbol id="circle-check" viewBox="0 0 512 512">
        <path d="M235.3 331.3C229.1 337.6 218.9 337.6 212.7 331.3L148.7 267.3C142.4 261.1 142.4 250.9 148.7 244.7C154.9 238.4 165.1 238.4 171.3 244.7L224 297.4L340.7 180.7C346.9 174.4 357.1 174.4 363.3 180.7C369.6 186.9 369.6 197.1 363.3 203.3L235.3 331.3zM512 256C512 397.4 397.4 512 256 512C114.6 512 0 397.4 0 256C0 114.6 114.6 0 256 0C397.4 0 512 114.6 512 256zM256 32C132.3 32 32 132.3 32 256C32 379.7 132.3 480 256 480C379.7 480 480 379.7 480 256C480 132.3 379.7 32 256 32z" />
    </symbol>
    <symbol id="calendar-arrow-down" viewBox="0 0 448 512">
        <path d="M240 377.4L292.7 324.7C298.9 318.4 309.1 318.4 315.3 324.7C321.6 330.9 321.6 341.1 315.3 347.3L235.3 427.3C229.1 433.6 218.9 433.6 212.7 427.3L132.7 347.3C126.4 341.1 126.4 330.9 132.7 324.7C138.9 318.4 149.1 318.4 155.3 324.7L208 377.4V256C208 247.2 215.2 240 224 240C232.8 240 240 247.2 240 256L240 377.4zM128 64H320V16C320 7.164 327.2 0 336 0C344.8 0 352 7.164 352 16V64H384C419.3 64 448 92.65 448 128V448C448 483.3 419.3 512 384 512H64C28.65 512 0 483.3 0 448V128C0 92.65 28.65 64 64 64H96V16C96 7.164 103.2 0 112 0C120.8 0 128 7.164 128 16V64zM32 448C32 465.7 46.33 480 64 480H384C401.7 480 416 465.7 416 448V192H32V448zM32 128V160H416V128C416 110.3 401.7 96 384 96H64C46.33 96 32 110.3 32 128z" />
    </symbol>
    <symbol id="calendar-arrow-up" viewBox="0 0 448 512">
        <path d="M208 294.6L155.3 347.3C149.1 353.6 138.9 353.6 132.7 347.3C126.4 341.1 126.4 330.9 132.7 324.7L212.7 244.7C218.9 238.4 229.1 238.4 235.3 244.7L315.3 324.7C321.6 330.9 321.6 341.1 315.3 347.3C309.1 353.6 298.9 353.6 292.7 347.3L240 294.6V416C240 424.8 232.8 432 223.1 432C215.2 432 207.1 424.8 207.1 416L208 294.6zM128 64H320V16C320 7.164 327.2 0 336 0C344.8 0 352 7.164 352 16V64H384C419.3 64 448 92.65 448 128V448C448 483.3 419.3 512 384 512H64C28.65 512 0 483.3 0 448V128C0 92.65 28.65 64 64 64H96V16C96 7.164 103.2 0 112 0C120.8 0 128 7.164 128 16V64zM32 448C32 465.7 46.33 480 64 480H384C401.7 480 416 465.7 416 448V192H32V448zM32 128V160H416V128C416 110.3 401.7 96 384 96H64C46.33 96 32 110.3 32 128z" />
    </symbol>
    <symbol id="chart-waterfall" viewBox="0 0 512 512">
        <path d="M16 32C24.84 32 32 39.16 32 48V400C32 426.5 53.49 448 80 448H496C504.8 448 512 455.2 512 464C512 472.8 504.8 480 496 480H80C35.82 480 0 444.2 0 400V48C0 39.16 7.164 32 16 32zM144 224C152.8 224 160 231.2 160 240V336C160 344.8 152.8 352 144 352C135.2 352 128 344.8 128 336V240C128 231.2 135.2 224 144 224zM256 240C256 248.8 248.8 256 240 256C231.2 256 224 248.8 224 240V144C224 135.2 231.2 128 240 128C248.8 128 256 135.2 256 144V240zM336 64C344.8 64 352 71.16 352 80V176C352 184.8 344.8 192 336 192C327.2 192 320 184.8 320 176V80C320 71.16 327.2 64 336 64zM448 336C448 344.8 440.8 352 432 352C423.2 352 416 344.8 416 336V80C416 71.16 423.2 64 432 64C440.8 64 448 71.16 448 80V336z" />
    </symbol>
    <symbol id="circle-info" viewBox="0 0 512 512">
        <path d="M256 0C114.6 0 0 114.6 0 256s114.6 256 256 256s256-114.6 256-256S397.4 0 256 0zM256 480c-123.5 0-224-100.5-224-224s100.5-224 224-224s224 100.5 224 224S379.5 480 256 480zM256 184c13.25 0 24-10.74 24-24c0-13.25-10.75-24-24-24S232 146.7 232 160C232 173.3 242.7 184 256 184zM304 352h-32V240C272 231.2 264.8 224 256 224H224C215.2 224 208 231.2 208 240S215.2 256 224 256h16v96h-32C199.2 352 192 359.2 192 368C192 376.8 199.2 384 208 384h96c8.836 0 16-7.164 16-16C320 359.2 312.8 352 304 352z" />
    </symbol>
    <symbol id="calendar-arrow-down" viewBox="0 0 448 512">
        <path d="M240 377.4L292.7 324.7C298.9 318.4 309.1 318.4 315.3 324.7C321.6 330.9 321.6 341.1 315.3 347.3L235.3 427.3C229.1 433.6 218.9 433.6 212.7 427.3L132.7 347.3C126.4 341.1 126.4 330.9 132.7 324.7C138.9 318.4 149.1 318.4 155.3 324.7L208 377.4V256C208 247.2 215.2 240 224 240C232.8 240 240 247.2 240 256L240 377.4zM128 64H320V16C320 7.164 327.2 0 336 0C344.8 0 352 7.164 352 16V64H384C419.3 64 448 92.65 448 128V448C448 483.3 419.3 512 384 512H64C28.65 512 0 483.3 0 448V128C0 92.65 28.65 64 64 64H96V16C96 7.164 103.2 0 112 0C120.8 0 128 7.164 128 16V64zM32 448C32 465.7 46.33 480 64 480H384C401.7 480 416 465.7 416 448V192H32V448zM32 128V160H416V128C416 110.3 401.7 96 384 96H64C46.33 96 32 110.3 32 128z" />
    </symbol>
    <symbol id="calendar-arrow-up" viewBox="0 0 448 512">
        <path d="M208 294.6L155.3 347.3C149.1 353.6 138.9 353.6 132.7 347.3C126.4 341.1 126.4 330.9 132.7 324.7L212.7 244.7C218.9 238.4 229.1 238.4 235.3 244.7L315.3 324.7C321.6 330.9 321.6 341.1 315.3 347.3C309.1 353.6 298.9 353.6 292.7 347.3L240 294.6V416C240 424.8 232.8 432 223.1 432C215.2 432 207.1 424.8 207.1 416L208 294.6zM128 64H320V16C320 7.164 327.2 0 336 0C344.8 0 352 7.164 352 16V64H384C419.3 64 448 92.65 448 128V448C448 483.3 419.3 512 384 512H64C28.65 512 0 483.3 0 448V128C0 92.65 28.65 64 64 64H96V16C96 7.164 103.2 0 112 0C120.8 0 128 7.164 128 16V64zM32 448C32 465.7 46.33 480 64 480H384C401.7 480 416 465.7 416 448V192H32V448zM32 128V160H416V128C416 110.3 401.7 96 384 96H64C46.33 96 32 110.3 32 128z" />
    </symbol>
    <symbol id="lightbulb" viewBox="0 0 384 512">
        <path d="M255.9 415.1H128.1c-8.846 0-15.98 7.179-15.97 16.03L112.1 454.3c.0098 6.273 1.81 12.47 5.284 17.69l17.14 25.69c5.225 7.855 17.2 14.28 26.64 14.28h61.67c9.418 0 21.39-6.436 26.61-14.28l17.08-25.68c2.953-4.441 5.341-12.37 5.348-17.7l-.0521-22.33C271.8 423.2 264.7 415.1 255.9 415.1zM239.9 454.4l-16.11 24.45c-.4766 .4336-1.686 1.082-.8672 1.117l-60.29 .1172c-.4238-.1055-1.138-.2793-1.423-.2793c-.1406 0-.1348-.2265 0 0l-17.1-25.48l-.0098-6.37h95.94l.0039 5.179C239.9 453.6 239.7 454.4 239.9 454.4C239.9 454.4 239.8 454.5 239.9 454.4zM315.8 51.3c-33.33-33.22-78.22-52.47-124.3-51.28C94.7 .2944 16 79.89 16 177.4c0 42.9 15.47 84.34 43.55 116.6c13.33 15.31 35.84 49.59 43.73 76.02c1.078 8.687 8.844 14.62 17.64 13.72c8.703-.9687 14.98-8.968 14.11-17.65l-.6094-3.312c-10.31-34.97-36-72.84-50.73-89.77C60.67 246.5 48 212.6 48 177.4c0-81.24 63.05-145.1 143.5-145.3H192c38.13 0 74.05 14.87 101.2 41.93C320.8 101.5 336 138.2 336 177.4c0 35.18-12.67 69.15-35.67 95.62c-14.75 16.94-40.44 54.81-50.75 89.77l-.625 3.343c-1.047 8.749 4.938 17.59 13.67 18.69c.7813 .0938 1.531 .1562 2.281 .1562c7.797 0 14.36-5.124 15.36-13.12c8.344-28.25 30.86-62.52 44.2-77.84C352.5 261.7 368 220.3 368 177.4C368 129.7 349.5 84.89 315.8 51.3zM208 80.01c0-8.843-7.156-16-16-16c-61.75 0-112 50.24-112 111.1C80 184.8 87.16 192 96 192s16-7.158 16-16c0-44.1 35.88-79.1 80-79.1C200.8 96.01 208 88.86 208 80.01z" />
    </symbol>
    <symbol id="badge-check" viewBox="0 0 512 512">
        <path d="M235.3 331.3C229.1 337.6 218.9 337.6 212.7 331.3L156.7 275.3C150.4 269.1 150.4 258.9 156.7 252.7C162.9 246.4 173.1 246.4 179.3 252.7L224 297.4L324.7 196.7C330.9 190.4 341.1 190.4 347.3 196.7C353.6 202.9 353.6 213.1 347.3 219.3L235.3 331.3zM343.1 45.63C376.1 39.67 411.5 49.43 437 74.98C462.6 100.5 472.3 135.9 466.4 168.9C493.9 187.1 512 219.9 512 255.1C512 292.1 493.9 324 466.4 343.1C472.3 376.1 462.6 411.5 437 437C411.5 462.6 376.1 472.3 343.1 466.4C324 493.9 292.1 512 256 512C219.9 512 187.1 493.9 168.9 466.4C135.9 472.3 100.5 462.6 74.98 437C49.43 411.5 39.67 376.1 45.63 343.1C18.08 324 0 292.1 0 255.1C0 219.9 18.08 187.1 45.63 168.9C39.67 135.9 49.43 100.5 74.98 74.98C100.5 49.43 135.9 39.67 168.9 45.63C187.1 18.08 219.9 0 255.1 0C292.1 0 324 18.08 343.1 45.63L343.1 45.63zM184.4 83.08L171.7 79.2C146.3 71.4 117.6 77.57 97.61 97.61C77.57 117.6 71.4 146.3 79.2 171.7L83.08 184.4L71.4 190.6C47.93 203 32 227.7 32 255.1C32 284.3 47.93 308.1 71.4 321.4L83.08 327.6L79.2 340.3C71.4 365.7 77.57 394.3 97.61 414.4C117.6 434.4 146.3 440.6 171.7 432.8L184.4 428.9L190.6 440.6C203 464.1 227.7 480 256 480C284.3 480 308.1 464.1 321.4 440.6L327.6 428.9L340.3 432.8C365.7 440.6 394.3 434.4 414.4 414.4C434.4 394.3 440.6 365.7 432.8 340.3L428.9 327.6L440.6 321.4C464.1 308.1 480 284.3 480 255.1C480 227.7 464.1 203 440.6 190.6L428.9 184.4L432.8 171.7C440.6 146.3 434.4 117.6 414.4 97.6C394.4 77.56 365.7 71.4 340.3 79.2L327.6 83.08L321.4 71.4C308.1 47.93 284.3 31.1 256 31.1C227.7 31.1 203 47.93 190.6 71.4L184.4 83.08z" />
    </symbol>
    <symbol id="triangle-exclamation" viewBox="0 0 512 512">
        <path d="M256 360c-13.25 0-23.1 10.74-23.1 24c0 13.25 10.75 24 23.1 24c13.25 0 23.1-10.75 23.1-24C280 370.7 269.3 360 256 360zM256 320c8.843 0 15.1-7.156 15.1-16V160c0-8.844-7.155-16-15.1-16S240 151.2 240 160v144C240 312.8 247.2 320 256 320zM504.3 397.3L304.5 59.38C294.4 42.27 276.2 32.03 256 32C235.8 32 217.7 42.22 207.5 59.36l-199.9 338c-10.05 16.97-10.2 37.34-.4218 54.5C17.29 469.5 35.55 480 56.1 480h399.9c20.51 0 38.75-10.53 48.81-28.17C514.6 434.7 514.4 414.3 504.3 397.3zM476.1 435.1C472.7 443.5 464.8 448 455.1 448H56.1c-8.906 0-16.78-4.484-21.08-12c-4.078-7.156-4.015-15.3 .1562-22.36L235.1 75.66C239.4 68.36 247.2 64 256 64c0 0-.0156 0 0 0c8.765 .0156 16.56 4.359 20.86 11.64l199.9 338C480.1 420.7 481.1 428.8 476.1 435.1z" />
    </symbol>
    <symbol id="trash-can" viewBox="0 0 448 512">
        <path d="M144 400C144 408.8 136.8 416 128 416C119.2 416 112 408.8 112 400V176C112 167.2 119.2 160 128 160C136.8 160 144 167.2 144 176V400zM240 400C240 408.8 232.8 416 224 416C215.2 416 208 408.8 208 400V176C208 167.2 215.2 160 224 160C232.8 160 240 167.2 240 176V400zM336 400C336 408.8 328.8 416 320 416C311.2 416 304 408.8 304 400V176C304 167.2 311.2 160 320 160C328.8 160 336 167.2 336 176V400zM310.1 22.56L336.9 64H432C440.8 64 448 71.16 448 80C448 88.84 440.8 96 432 96H416V432C416 476.2 380.2 512 336 512H112C67.82 512 32 476.2 32 432V96H16C7.164 96 0 88.84 0 80C0 71.16 7.164 64 16 64H111.1L137 22.56C145.8 8.526 161.2 0 177.7 0H270.3C286.8 0 302.2 8.526 310.1 22.56V22.56zM148.9 64H299.1L283.8 39.52C280.9 34.84 275.8 32 270.3 32H177.7C172.2 32 167.1 34.84 164.2 39.52L148.9 64zM64 432C64 458.5 85.49 480 112 480H336C362.5 480 384 458.5 384 432V96H64V432z" />
    </symbol>
    <symbol id="copy" viewBox="0 0 512 512">
        <path d="M272 416C263.2 416 256 423.2 256 432V448c0 17.67-14.33 32-32 32H64c-17.67 0-32-14.33-32-32V192c0-17.67 14.33-32 32-32h112C184.8 160 192 152.8 192 144C192 135.2 184.8 128 176 128H63.99c-35.35 0-64 28.65-64 64l.0098 256C0 483.3 28.65 512 64 512h160c35.35 0 64-28.65 64-64v-16C288 423.2 280.8 416 272 416zM502.6 86.63l-77.25-77.25C419.4 3.371 411.2 0 402.7 0H288C252.7 0 224 28.65 224 64v256c0 35.35 28.65 64 64 64h160c35.35 0 64-28.65 64-64V109.3C512 100.8 508.6 92.63 502.6 86.63zM416 45.25L466.7 96H416V45.25zM480 320c0 17.67-14.33 32-32 32h-160c-17.67 0-32-14.33-32-32V64c0-17.67 14.33-32 32-32h96l.0026 64c0 17.67 14.33 32 32 32H480V320z" />
    </symbol>
    <symbol id="pen-to-square" viewBox="0 0 512 512">
        <path d="M386.7 22.63C411.7-2.365 452.3-2.365 477.3 22.63L489.4 34.74C514.4 59.74 514.4 100.3 489.4 125.3L269 345.6C260.6 354.1 249.9 359.1 238.2 362.7L147.6 383.6C142.2 384.8 136.6 383.2 132.7 379.3C128.8 375.4 127.2 369.8 128.4 364.4L149.3 273.8C152 262.1 157.9 251.4 166.4 242.1L386.7 22.63zM454.6 45.26C442.1 32.76 421.9 32.76 409.4 45.26L382.6 72L440 129.4L466.7 102.6C479.2 90.13 479.2 69.87 466.7 57.37L454.6 45.26zM180.5 281L165.3 346.7L230.1 331.5C236.8 330.2 242.2 327.2 246.4 322.1L417.4 152L360 94.63L189 265.6C184.8 269.8 181.8 275.2 180.5 281V281zM208 64C216.8 64 224 71.16 224 80C224 88.84 216.8 96 208 96H80C53.49 96 32 117.5 32 144V432C32 458.5 53.49 480 80 480H368C394.5 480 416 458.5 416 432V304C416 295.2 423.2 288 432 288C440.8 288 448 295.2 448 304V432C448 476.2 412.2 512 368 512H80C35.82 512 0 476.2 0 432V144C0 99.82 35.82 64 80 64H208z" />
    </symbol>
    <symbol id="clock-rotate-left" viewBox="0 0 512 512">
        <path d="M256 0C397.4 0 512 114.6 512 256C512 397.4 397.4 512 256 512C172.2 512 97.87 471.8 51.19 409.6C45.88 402.5 47.31 392.5 54.37 387.2C61.44 381.9 71.47 383.3 76.78 390.4C117.7 444.8 182.7 480 256 480C379.7 480 480 379.7 480 256C480 132.3 379.7 32 256 32C166.7 32 89.51 84.3 53.55 160H144C152.8 160 160 167.2 160 176C160 184.8 152.8 192 144 192H16C7.164 192 0 184.8 0 176V48C0 39.16 7.164 32 16 32C24.84 32 32 39.16 32 48V131.1C75.66 53.29 159.6 0 256 0zM256 128C264.8 128 272 135.2 272 144V249.4L347.3 324.7C353.6 330.9 353.6 341.1 347.3 347.3C341.1 353.6 330.9 353.6 324.7 347.3L244.7 267.3C241.7 264.3 239.1 260.2 239.1 256V144C239.1 135.2 247.2 128 255.1 128H256z" />
    </symbol>
    <symbol id="circle-check" viewBox="0 0 512 512">
        <path d="M235.3 331.3C229.1 337.6 218.9 337.6 212.7 331.3L148.7 267.3C142.4 261.1 142.4 250.9 148.7 244.7C154.9 238.4 165.1 238.4 171.3 244.7L224 297.4L340.7 180.7C346.9 174.4 357.1 174.4 363.3 180.7C369.6 186.9 369.6 197.1 363.3 203.3L235.3 331.3zM512 256C512 397.4 397.4 512 256 512C114.6 512 0 397.4 0 256C0 114.6 114.6 0 256 0C397.4 0 512 114.6 512 256zM256 32C132.3 32 32 132.3 32 256C32 379.7 132.3 480 256 480C379.7 480 480 379.7 480 256C480 132.3 379.7 32 256 32z" />
    </symbol>
    <symbol id="clock" viewBox="0 0 512 512">
        <path d="M240 112C240 103.2 247.2 96 256 96C264.8 96 272 103.2 272 112V247.4L360.9 306.7C368.2 311.6 370.2 321.5 365.3 328.9C360.4 336.2 350.5 338.2 343.1 333.3L247.1 269.3C242.7 266.3 239.1 261.3 239.1 256L240 112zM256 0C397.4 0 512 114.6 512 256C512 397.4 397.4 512 256 512C114.6 512 0 397.4 0 256C0 114.6 114.6 0 256 0zM32 256C32 379.7 132.3 480 256 480C379.7 480 480 379.7 480 256C480 132.3 379.7 32 256 32C132.3 32 32 132.3 32 256z" />
    </symbol>
    <symbol id="chart-simple" viewBox="0 0 448 512">
        <path d="M240 32C266.5 32 288 53.49 288 80V432C288 458.5 266.5 480 240 480H208C181.5 480 160 458.5 160 432V80C160 53.49 181.5 32 208 32H240zM240 64H208C199.2 64 192 71.16 192 80V432C192 440.8 199.2 448 208 448H240C248.8 448 256 440.8 256 432V80C256 71.16 248.8 64 240 64zM80 224C106.5 224 128 245.5 128 272V432C128 458.5 106.5 480 80 480H48C21.49 480 0 458.5 0 432V272C0 245.5 21.49 224 48 224H80zM80 256H48C39.16 256 32 263.2 32 272V432C32 440.8 39.16 448 48 448H80C88.84 448 96 440.8 96 432V272C96 263.2 88.84 256 80 256zM320 144C320 117.5 341.5 96 368 96H400C426.5 96 448 117.5 448 144V432C448 458.5 426.5 480 400 480H368C341.5 480 320 458.5 320 432V144zM352 144V432C352 440.8 359.2 448 368 448H400C408.8 448 416 440.8 416 432V144C416 135.2 408.8 128 400 128H368C359.2 128 352 135.2 352 144z" />
    </symbol>
    <symbol id="weight-hanging" viewBox="0 0 512 512">
        <path d="M509.9 431.4l-68.43-267.7C436.2 142.7 417.9 128 397 128h-77.38c10.15-13.41 16.38-29.92 16.38-48c0-44.13-35.89-80-80.01-80S175.1 35.88 175.1 80c0 18.08 6.23 34.59 16.38 48H114.1C94.1 128 75.8 142.7 70.53 163.6l-68.45 267.8c-5.08 19.81-.75 41.13 11.6 57.03C25.29 503.4 42.53 512 60.95 512h390.1c18.42 0 35.66-8.594 47.27-23.59C510.7 472.5 514.1 451.2 509.9 431.4zM256 32c26.47 0 48.01 21.53 48.01 48S282.5 128 256 128S207.1 106.5 207.1 80S229.5 32 256 32zM473 468.8C467.4 476 459.6 480 451 480H60.95c-8.578 0-16.39-3.969-21.99-11.19c-6.33-8.156-8.518-19.16-5.877-29.47L101.6 171.5C103.3 164.7 108.8 160 114.1 160h282c6.205 0 11.74 4.719 13.46 11.56l68.45 267.8C481.6 449.6 479.4 460.7 473 468.8z" />
    </symbol>
    <symbol id="repeat" viewBox="0 0 512 512">
        <path d="M496 240C487.2 240 480 247.2 480 256c0 79.41-64.59 144-144 144H192L192 336c0-6.219-3.594-11.84-9.219-14.5C180.6 320.5 178.3 320 176 320c-3.672 0-7.312 1.25-10.25 3.719l-96 80C66.11 406.8 64 411.3 64 416s2.109 9.254 5.75 12.29l96 80c4.781 4 11.45 4.812 17.03 2.219C188.4 507.9 192 502.2 192 496L192 432H336c97.05 0 176-78.97 176-176C512 247.2 504.8 240 496 240zM160 461.8L105 416L160 370.2V461.8zM176 112l143.1-.002L320 176c0 6.219 3.594 11.84 9.219 14.5C331.4 191.5 333.7 192 336 192c3.672 0 7.312-1.25 10.25-3.719l96-80C445.9 105.2 448 100.7 448 95.1s-2.109-9.253-5.75-12.28l-96-80c-4.781-4-11.45-4.812-17.03-2.219C323.6 4.148 320 9.773 320 15.99L319.1 80H176C78.95 80 0 158.1 0 256c0 8.844 7.156 16 16 16S32 264.8 32 256C32 176.6 96.59 112 176 112zM352 50.15l55 45.85L352 141.8V50.15z" />
    </symbol>
    <symbol id="sliders" viewBox="0 0 512 512">
        <path d="M0 416C0 407.2 7.164 400 16 400H81.6C89.01 363.5 121.3 336 160 336C198.7 336 230.1 363.5 238.4 400H496C504.8 400 512 407.2 512 416C512 424.8 504.8 432 496 432H238.4C230.1 468.5 198.7 496 160 496C121.3 496 89.01 468.5 81.6 432H16C7.164 432 0 424.8 0 416V416zM208 416C208 389.5 186.5 368 160 368C133.5 368 112 389.5 112 416C112 442.5 133.5 464 160 464C186.5 464 208 442.5 208 416zM352 176C390.7 176 422.1 203.5 430.4 240H496C504.8 240 512 247.2 512 256C512 264.8 504.8 272 496 272H430.4C422.1 308.5 390.7 336 352 336C313.3 336 281 308.5 273.6 272H16C7.164 272 0 264.8 0 256C0 247.2 7.164 240 16 240H273.6C281 203.5 313.3 176 352 176zM400 256C400 229.5 378.5 208 352 208C325.5 208 304 229.5 304 256C304 282.5 325.5 304 352 304C378.5 304 400 282.5 400 256zM496 80C504.8 80 512 87.16 512 96C512 104.8 504.8 112 496 112H270.4C262.1 148.5 230.7 176 192 176C153.3 176 121 148.5 113.6 112H16C7.164 112 0 104.8 0 96C0 87.16 7.164 80 16 80H113.6C121 43.48 153.3 16 192 16C230.7 16 262.1 43.48 270.4 80H496zM144 96C144 122.5 165.5 144 192 144C218.5 144 240 122.5 240 96C240 69.49 218.5 48 192 48C165.5 48 144 69.49 144 96z" />
    </symbol>
    <symbol id="book-open-cover" viewBox="0 0 640 512">
        <path d="M89.06 398.1l217.1 48.4C310.7 447.5 315.3 448 320 448s9.312-.5098 13.88-1.529l217.1-48.4C565.6 394.8 576 381.8 576 366.7V39.47c0-22.15-17.99-39.46-39.31-39.46C536.2 .0127 535.9 0 535.6 0C532.7 0 522.6 1.673 320 33.13C117.1 1.63 107.4 .002 104.4 .002c-.3574 0-.6172 .0107-1.105 .0107C81.99 .0107 64 17.32 64 39.47V366.7C64 381.8 74.42 394.8 89.06 398.1zM336 63.1c0 0 195.4-30.39 200.6-31.07C540.1 32.03 544 34.91 544 39.56l-.0234 327.3L336 413.2V63.1zM96 39.56c0-2.623 1.203-4.367 2.211-5.369c.7383-.7344 2.248-1.922 5.264-2.148C108.8 32.74 304 63.1 304 63.1v350.1L96 366.7V39.56zM624 32C615.2 32 608 39.16 608 48v335.6c0 22.88-16.3 42.69-38.73 47.09L320 479.7l-249.3-48.97C48.3 426.3 32 406.5 32 383.6V48C32 39.16 24.84 32 16 32S0 39.16 0 48v335.6c0 38.13 27.16 71.14 64.58 78.5l252.3 49.58C317.9 511.9 318.1 512 320 512s2.062-.0938 3.078-.2969l252.4-49.58C612.8 454.8 640 421.8 640 383.6V48C640 39.16 632.8 32 624 32z" />
    </symbol>
    <symbol id="ruler-triangle" viewBox="0 0 512 512">
        <path d="M121.9 241.2C127.9 238.7 134.7 240.1 139.3 244.7L267.3 372.7C271.9 377.3 273.3 384.1 270.8 390.1C268.3 396.1 262.5 400 256 400H128C119.2 400 112 392.8 112 384V256C112 249.5 115.9 243.7 121.9 241.2V241.2zM144 294.6V368H217.4L144 294.6zM77.26 13.26L498.7 434.7C507.2 443.2 512 454.7 512 466.7C512 491.7 491.7 512 466.7 512H64C28.65 512 0 483.3 0 448V45.25C0 20.26 20.26 0 45.25 0C57.26 0 68.77 4.768 77.25 13.25L77.26 13.26zM32 45.26V448C32 465.7 46.33 480 64 480H466.7C474.1 480 480 474.1 480 466.7C480 463.2 478.6 459.9 476.1 457.4L436.7 417.9L411.3 443.3C405.1 449.6 394.9 449.6 388.7 443.3C382.4 437.1 382.4 426.9 388.7 420.7L414.1 395.3L356.7 337.9L331.3 363.3C325.1 369.6 314.9 369.6 308.7 363.3C302.4 357.1 302.4 346.9 308.7 340.7L334.1 315.3L276.7 257.9L251.3 283.3C245.1 289.6 234.9 289.6 228.7 283.3C222.4 277.1 222.4 266.9 228.7 260.7L254.1 235.3L196.7 177.9L171.3 203.3C165.1 209.6 154.9 209.6 148.7 203.3C142.4 197.1 142.4 186.9 148.7 180.7L174.1 155.3L116.7 97.94L91.31 123.3C85.07 129.6 74.94 129.6 68.69 123.3C62.44 117.1 62.44 106.9 68.69 100.7L94.06 75.31L54.63 35.88C52.14 33.4 48.77 32 45.26 32C37.94 32 32 37.94 32 45.26L32 45.26z" />
    </symbol>
    <symbol id="house-window" viewBox="0 0 576 512">
        <path d="M336 192C353.7 192 368 206.3 368 224V320C368 337.7 353.7 352 336 352H239.1C222.3 352 207.1 337.7 207.1 320V224C207.1 206.3 222.3 192 239.1 192H336zM239.1 320H336V224H239.1V320zM570.6 244C577.2 249.8 577.8 259.1 571.1 266.6C566.2 273.2 556 273.8 549.4 267.1L512 234.1V432C512 476.2 476.2 512 432 512H144C99.82 512 64 476.2 64 432V234.1L26.59 267.1C19.96 273.8 9.849 273.2 4.003 266.6C-1.844 259.1-1.212 249.8 5.414 244L277.4 4.002C283.5-1.334 292.5-1.334 298.6 4.002L570.6 244zM144 480H432C458.5 480 480 458.5 480 432V206.7L288 37.34L96 206.7V432C96 458.5 117.5 480 144 480z" />
    </symbol>
    <symbol id="chart-user" viewBox="0 0 640 512">
        <path d="M160 320c53.02 0 96-42.98 96-96c0-53.02-42.98-96-96-96C106.1 128 64 170.1 64 224C64 277 106.1 320 160 320zM160 160c35.29 0 64 28.71 64 64S195.3 288 160 288S96 259.3 96 224S124.7 160 160 160zM592 0h-384C181.5 0 160 21.53 160 48v32C160 88.84 167.2 96 176 96S192 88.84 192 80v-32C192 39.19 199.2 32 208 32h384C600.8 32 608 39.19 608 48v320c0 8.812-7.172 16-16 16H352c-8.844 0-16 7.156-16 16S343.2 416 352 416h240C618.5 416 640 394.5 640 368v-320C640 21.53 618.5 0 592 0zM192 352H128c-70.69 0-128 57.31-128 128c0 17.67 14.33 32 32 32h256c17.67 0 32-14.33 32-32C320 409.3 262.7 352 192 352zM32 480c0-52.94 43.07-96 96-96h64c52.94 0 96 43.06 96 96H32zM315.3 164.7c-6.25-6.25-16.38-6.25-22.62 0s-6.25 16.38 0 22.62l80 80C375.8 270.4 379.9 272 384 272s8.188-1.562 11.31-4.688L496 166.6V224c0 8.844 7.156 16 16 16s16-7.156 16-16V128c0-8.844-7.156-16-16-16h-96c-8.844 0-16 7.156-16 16s7.156 16 16 16h57.38L384 233.4L315.3 164.7z" />
    </symbol>
    <symbol id="right-from-bracket" viewBox="0 0 512 512">
        <path d="M176 448h-96C53.53 448 32 426.5 32 400v-288C32 85.53 53.53 64 80 64h96C184.8 64 192 56.84 192 48S184.8 32 176 32h-96C35.88 32 0 67.88 0 112v288C0 444.1 35.88 480 80 480h96C184.8 480 192 472.8 192 464S184.8 448 176 448zM502.6 233.4l-128-128c-9.156-9.156-22.91-11.91-34.88-6.938C327.8 103.4 320 115.1 320 128l.0918 63.1L176 192C149.5 192 128 213.5 128 240v32C128 298.5 149.5 320 176 320l144.1-.001L320 384c0 12.94 7.797 24.62 19.75 29.56c11.97 4.969 25.72 2.219 34.88-6.938l128-128C508.9 272.4 512 264.2 512 256S508.9 239.6 502.6 233.4zM352 384V288H176C167.2 288 160 280.8 160 272v-32C160 231.2 167.2 224 176 224H352l-.0039-96l128 128L352 384z" />
    </symbol>
    <symbol id="light-emergency-on" viewBox="0 0 640 512">
        <path d="M535 94.3L599 62.3C607 58.37 610.2 48.74 606.4 40.83C602.2 32.93 592.6 29.73 584.1 33.7L520.1 65.7C512.1 69.63 509.8 79.26 513.6 87.17C517.8 95.07 527.4 98.27 535 94.3zM176 320C184.1 320 192 312.8 192 304V192C192 121.3 249.3 64 320 64C390.7 64 448 121.3 448 192V304C448 312.8 455 320 464 320C472.1 320 480 312.8 480 304V192C480 103.6 408.3 32 320 32C231.7 32 160 103.6 160 192V304C160 312.8 167 320 176 320zM224 176C224 184.8 231 192 240 192C248.1 192 256 184.8 256 176C256 149.5 277.4 128 304 128C312.1 128 320 120.8 320 112C320 103.2 312.1 96 304 96C259.8 96 224 131.9 224 176zM80 192H16C7.039 192 0 199.2 0 208C0 216.8 7.039 224 16 224H80C88.96 224 96 216.8 96 208C96 199.2 88.96 192 80 192zM624 192H560C551 192 544 199.2 544 208C544 216.8 551 224 560 224H624C632.1 224 640 216.8 640 208C640 199.2 632.1 192 624 192zM40.96 62.3L104.1 94.3C112.6 98.27 122.2 95.07 126.4 87.17C130.2 79.26 127 69.63 119 65.7L55.04 33.7C47.36 29.73 37.76 32.93 33.6 40.83C29.76 48.74 32.96 58.37 40.96 62.3zM496 352H144C117.4 352 96 373.5 96 400V432C96 458.5 117.4 480 144 480H496C522.6 480 544 458.5 544 432V400C544 373.5 522.6 352 496 352zM512 432C512 440.8 504.1 448 496 448H144C135 448 128 440.8 128 432V400C128 391.2 135 384 144 384H496C504.1 384 512 391.2 512 400V432z" />
    </symbol>
    <symbol id="trophy-star" viewBox="0 0 576 512">
        <path d="M368.8 119.8l-41.86-6.125l-18.72-38.09c-7.607-15.48-32.69-15.45-40.23 0L249.2 113.7L207.3 119.8C198.7 121.1 191.8 126.9 189.1 135.2C186.5 143.4 188.6 152.3 194.8 158.2l30.34 29.52L217.9 229.7C216.5 238.2 219.1 246.7 226.9 251.7c6.982 4.961 15.97 5.715 23.57 1.664l37.48-19.75l37.45 19.75C328.7 255.1 332.3 256 335.9 256c4.633 0 9.236-1.445 13.18-4.336c6.951-5.086 10.36-13.53 8.924-22.01l-7.201-41.89l30.34-29.52c6.199-6.027 8.391-14.86 5.729-23.11C384.2 126.9 377.3 121 368.8 119.8zM316.4 176.5L323.1 215.8L287.1 197.3L252.9 215.8l6.73-39.31L231.2 148.8l39.36-5.75l17.56-35.7l17.56 35.7l39.17 5.719L316.4 176.5zM572.2 76.72C570.7 69.31 564.1 64 556.6 64h-108.7c-.0137-6.172-.0496-12.01-.1805-17.34C447.1 20.5 425.1 0 399.7 0H176.3C150 0 128.9 20.5 128.3 46.66C128.1 51.99 128.1 57.83 128.1 64H19.43C11.87 64 5.336 69.31 3.773 76.72C2.898 80.91-17.19 180.8 45.04 272.8c41.67 61.64 109.9 104 202.5 126.7c14.29 3.5 24.43 16.23 24.43 30.95V480H176c-8.834 0-16.02 7.164-16.02 16S167.2 512 176 512H399.1c8.834 0 15.1-7.164 15.1-16S408.8 480 399.1 480h-95.97v-49.51c0-14.72 10.13-27.45 24.43-30.95c92.66-22.68 160.9-65.05 202.5-126.7C593.2 180.8 573.1 80.91 572.2 76.72zM71.79 255.3C29.2 192.6 30.55 123.8 33.33 96h95.38c3.016 77.71 19.29 188.6 81.19 258.1C148.4 332.9 101.9 299.6 71.79 255.3zM288 374.6C166.9 320.2 158.3 128.4 160.3 47.47C160.5 38.78 167.5 32 176.3 32h223.5c8.746 0 15.78 6.781 15.99 15.47C417.7 128.4 409.1 320.2 288 374.6zM504.2 255.3c-30.12 44.37-76.61 77.59-138.1 99.7C427.1 284.6 444.3 173.7 447.3 96h95.38C545.5 123.8 546.8 192.6 504.2 255.3z" />
    </symbol>
    <symbol id="fire" viewBox="0 0 448 512">
        <path d="M327.1 218.8c-2.656-4.344-7.219-7.156-12.28-7.594c-5.125-.2813-10.05 1.562-13.41 5.375l-38.58 44c-23.11-29.47-70.2-89.5-75.16-95.16C184.6 161.9 179.5 159.2 175.5 160C170.8 160.1 166.4 162.2 163.4 165.8C122.7 214.5 96 249.5 96 290.4C96 299.3 103.2 306.4 112 306.4S128 299.3 128 290.4c0-24.72 14.77-48.78 47.5-89.06c17.56 22.12 50.45 64.03 74.08 94.22c2.938 3.75 7.391 6 12.14 6.125c5.203 .1875 9.344-1.844 12.48-5.438l36.33-41.47c19.27 39.81 8.547 87.06-25.61 111c-7.234 5.062-8.984 15.03-3.922 22.28c3.125 4.438 8.078 6.812 13.12 6.812c3.172 0 6.375-.9375 9.172-2.906c48.08-33.69 62.78-100.2 34.17-154.8C334.4 231.3 330.9 225.1 327.1 218.8zM327.3 52.34c-6.156-5.75-15.72-5.75-21.88 0c-14.03 13.16-27.58 27.25-40.44 42.06c-23.86-31-51.94-61.84-82.08-90.09c-6.156-5.75-15.72-5.75-21.88 0C67.73 91.72 0 207.7 0 280C0 407.9 100.5 512 224 512s224-104.1 224-231.1C448 225.8 398.4 118.1 327.3 52.34zM224 480c-105.9 0-192-89.72-192-199.1c0-60.59 59.45-162.6 140-241.9c29.73 29 56.95 60.38 79.28 91.38c2.922 4.062 7.547 6.5 12.53 6.656c5.922 .2187 9.766-2.062 12.89-5.938c12.45-15.41 25.7-30.09 39.55-43.88C373.2 145.5 416 236.2 416 280C416 390.3 329.9 480 224 480z" />
    </symbol>
    <symbol id="plus" viewBox="0 0 448 512">
        <path d="M432 256C432 264.8 424.8 272 416 272h-176V448c0 8.844-7.156 16.01-16 16.01S208 456.8 208 448V272H32c-8.844 0-16-7.15-16-15.99C16 247.2 23.16 240 32 240h176V64c0-8.844 7.156-15.99 16-15.99S240 55.16 240 64v176H416C424.8 240 432 247.2 432 256z" />
    </symbol>
    <symbol id="merge" viewBox="0 0 512 512">
        <path d="M0 80C0 71.16 7.164 64 16 64H143.7C159.1 64 173.5 71.35 182.5 83.77L291.4 233.4C294.4 237.6 299.2 239.1 304.3 239.1H457.4L404.7 187.3C398.4 181.1 398.4 170.9 404.7 164.7C410.9 158.4 421.1 158.4 427.3 164.7L507.3 244.7C513.6 250.9 513.6 261.1 507.3 267.3L427.3 347.3C421.1 353.6 410.9 353.6 404.7 347.3C398.4 341.1 398.4 330.9 404.7 324.7L457.4 271.1H304.3C299.2 271.1 294.4 274.4 291.4 278.6L182.5 428.2C173.5 440.6 159.1 448 143.7 448H16C7.164 448 0 440.8 0 432C0 423.2 7.164 416 16 416H143.7C148.8 416 153.6 413.5 156.6 409.4L265.5 259.8C266.4 258.5 267.4 257.2 268.5 255.1C267.4 254.8 266.4 253.5 265.5 252.2L156.6 102.6C153.6 98.45 148.8 95.1 143.7 95.1H16C7.164 95.1 0 88.84 0 79.1V80z" />
    </symbol>
    <symbol id="dumbbell" viewBox="0 0 640 512">
        <path d="M624 240H608V160c0-26.51-21.49-48-48-48h-32c-5.625 0-11 1.25-16 2.875V96c0-26.51-21.49-48-48-48h-32C405.5 48 384 69.49 384 96v144H256V96c0-26.51-21.49-48-48-48h-32C149.5 48 128 69.49 128 96v18.88C123 113.1 117.6 112 112 112h-32C53.49 112 32 133.5 32 160v80H16C7.199 240 0 247.2 0 256c0 8.797 7.199 16 16 16H32V352c0 26.51 21.49 48 48 48h32c5.625 0 11-1.25 16-2.875V416c0 26.51 21.49 48 48 48h32C234.5 464 256 442.5 256 416V272h128V416c0 26.51 21.49 48 48 48h32c26.51 0 48-21.49 48-48v-18.88C517 398.9 522.4 400 528 400h32c26.51 0 48-21.49 48-48V272h16C632.8 272 640 264.8 640 256C640 247.2 632.8 240 624 240zM128 352c0 8.75-7.25 16-16 16h-32C71.25 368 64 360.8 64 352V160c0-8.75 7.25-16 16-16h32C120.8 144 128 151.3 128 160V352zM224 416c0 8.75-7.25 16-16 16h-32C167.3 432 160 424.8 160 416V96c0-8.75 7.25-16 16-16h32C216.8 80 224 87.25 224 96V416zM480 416c0 8.75-7.25 16-16 16h-32c-8.75 0-16-7.25-16-16V96c0-8.75 7.25-16 16-16h32C472.8 80 480 87.25 480 96V416zM576 352c0 8.75-7.25 16-16 16h-32c-8.75 0-16-7.25-16-16V160c0-8.75 7.25-16 16-16h32C568.8 144 576 151.3 576 160V352z" />
    </symbol>
    <symbol id="list-check" viewBox="0 0 512 512">
        <path d="M76.29 154.2C73.41 157.7 69.22 159.8 64.72 159.1C60.23 160.2 55.86 158.5 52.69 155.3L4.686 107.3C-1.562 101.1-1.562 90.94 4.686 84.69C10.93 78.44 21.06 78.44 27.31 84.69L62.92 120.3L131.7 37.76C137.4 30.97 147.5 30.05 154.2 35.71C161 41.37 161.9 51.45 156.3 58.24L76.29 154.2zM76.29 314.2C73.41 317.7 69.22 319.8 64.72 319.1C60.23 320.2 55.86 318.5 52.69 315.3L4.686 267.3C-1.562 261.1-1.562 250.9 4.686 244.7C10.93 238.4 21.06 238.4 27.31 244.7L62.92 280.3L131.7 197.8C137.4 190.1 147.5 190.1 154.2 195.7C161 201.4 161.9 211.5 156.3 218.2L76.29 314.2zM191.1 96C191.1 87.16 199.2 80 207.1 80H496C504.8 80 512 87.16 512 96C512 104.8 504.8 112 496 112H207.1C199.2 112 191.1 104.8 191.1 96zM191.1 256C191.1 247.2 199.2 240 207.1 240H496C504.8 240 512 247.2 512 256C512 264.8 504.8 272 496 272H207.1C199.2 272 191.1 264.8 191.1 256zM159.1 416C159.1 407.2 167.2 400 175.1 400H496C504.8 400 512 407.2 512 416C512 424.8 504.8 432 496 432H175.1C167.2 432 159.1 424.8 159.1 416zM63.1 448C46.33 448 31.1 433.7 31.1 416C31.1 398.3 46.33 384 63.1 384C81.67 384 95.1 398.3 95.1 416C95.1 433.7 81.67 448 63.1 448z" />
    </symbol>
</svg>