<svg xmlns="http://www.w3.org/2000/svg" style="display: none;">
    <symbol id="triangle-exclamation" viewBox="0 0 512 512">
        <path d="M256 360c-13.25 0-23.1 10.74-23.1 24c0 13.25 10.75 24 23.1 24c13.25 0 23.1-10.75 23.1-24C280 370.7 269.3 360 256 360zM256 320c8.843 0 15.1-7.156 15.1-16V160c0-8.844-7.155-16-15.1-16S240 151.2 240 160v144C240 312.8 247.2 320 256 320zM504.3 397.3L304.5 59.38C294.4 42.27 276.2 32.03 256 32C235.8 32 217.7 42.22 207.5 59.36l-199.9 338c-10.05 16.97-10.2 37.34-.4218 54.5C17.29 469.5 35.55 480 56.1 480h399.9c20.51 0 38.75-10.53 48.81-28.17C514.6 434.7 514.4 414.3 504.3 397.3zM476.1 435.1C472.7 443.5 464.8 448 455.1 448H56.1c-8.906 0-16.78-4.484-21.08-12c-4.078-7.156-4.015-15.3 .1562-22.36L235.1 75.66C239.4 68.36 247.2 64 256 64c0 0-.0156 0 0 0c8.765 .0156 16.56 4.359 20.86 11.64l199.9 338C480.1 420.7 481.1 428.8 476.1 435.1z"></path>
    </symbol>
    <symbol id="arrow-up-right" viewBox="0 0 320 512">
        <path d="M320 111.9v223.3c0 8.844-7.156 16-16 16s-16-7.156-16-16V150.6l-260.7 260.7C24.19 414.4 20.09 416 16 416s-8.188-1.562-11.31-4.688c-6.25-6.25-6.25-16.38 0-22.62l260.9-260.9l-185.6-.5547C71.11 127.2 63.97 120 64 111.2c.0313-8.844 7.188-15.97 16-15.97l224 .6562C312.9 95.94 320 103.1 320 111.9z"></path>
    </symbol>
    <symbol id="arrow-down-right" viewBox="0 0 320 512">
        <path d="M320 176v223.3c0 8.812-7.141 15.97-15.95 16l-224 .6562C71.23 416 64.03 408.9 64 400c-.0313-8.812 7.109-16 15.95-16.03l185.6-.5547L4.688 122.6c-6.25-6.25-6.25-16.38 0-22.62s16.38-6.25 22.62 0L288 360.6V176C288 167.2 295.2 160 304 160S320 167.2 320 176z"></path>
    </symbol>
    <symbol id="user-xmark" viewBox="0 0 640 512">
        <path d="M224 256c70.7 0 128-57.31 128-128S294.7 0 224 0C153.3 0 96 57.31 96 128S153.3 256 224 256zM224 32c52.94 0 96 43.06 96 96c0 52.93-43.06 96-96 96S128 180.9 128 128C128 75.06 171.1 32 224 32zM274.7 304H173.3C77.61 304 0 381.6 0 477.3C0 496.5 15.52 512 34.66 512h378.7C432.5 512 448 496.5 448 477.3C448 381.6 370.4 304 274.7 304zM413.3 480H34.66C33.2 480 32 478.8 32 477.3C32 399.4 95.4 336 173.3 336H274.7C352.6 336 416 399.4 416 477.3C416 478.8 414.8 480 413.3 480zM566.6 224l52.69-52.69c6.25-6.25 6.25-16.38 0-22.62s-16.38-6.25-22.62 0L544 201.4l-52.69-52.69c-6.25-6.25-16.38-6.25-22.62 0s-6.25 16.38 0 22.62L521.4 224l-52.69 52.69c-6.25 6.25-6.25 16.38 0 22.62c6.246 6.246 16.37 6.254 22.62 0L544 246.6l52.69 52.69c6.246 6.246 16.37 6.254 22.62 0c6.25-6.25 6.25-16.38 0-22.62L566.6 224z"></path>
    </symbol>
    <symbol id="plus" viewBox="0 0 448 512">
        <path d="M432 256C432 264.8 424.8 272 416 272h-176V448c0 8.844-7.156 16.01-16 16.01S208 456.8 208 448V272H32c-8.844 0-16-7.15-16-15.99C16 247.2 23.16 240 32 240h176V64c0-8.844 7.156-15.99 16-15.99S240 55.16 240 64v176H416C424.8 240 432 247.2 432 256z"></path>
    </symbol>
    <symbol id="right-from-bracket" viewBox="0 0 512 512">
        <path d="M176 448h-96C53.53 448 32 426.5 32 400v-288C32 85.53 53.53 64 80 64h96C184.8 64 192 56.84 192 48S184.8 32 176 32h-96C35.88 32 0 67.88 0 112v288C0 444.1 35.88 480 80 480h96C184.8 480 192 472.8 192 464S184.8 448 176 448zM502.6 233.4l-128-128c-9.156-9.156-22.91-11.91-34.88-6.938C327.8 103.4 320 115.1 320 128l.0918 63.1L176 192C149.5 192 128 213.5 128 240v32C128 298.5 149.5 320 176 320l144.1-.001L320 384c0 12.94 7.797 24.62 19.75 29.56c11.97 4.969 25.72 2.219 34.88-6.938l128-128C508.9 272.4 512 264.2 512 256S508.9 239.6 502.6 233.4zM352 384V288H176C167.2 288 160 280.8 160 272v-32C160 231.2 167.2 224 176 224H352l-.0039-96l128 128L352 384z"></path>
    </symbol>
    <symbol id="xmark" viewBox="0 0 320 512">
        <path d="M315.3 411.3c-6.253 6.253-16.37 6.253-22.63 0L160 278.6l-132.7 132.7c-6.253 6.253-16.37 6.253-22.63 0c-6.253-6.253-6.253-16.37 0-22.63L137.4 256L4.69 123.3c-6.253-6.253-6.253-16.37 0-22.63c6.253-6.253 16.37-6.253 22.63 0L160 233.4l132.7-132.7c6.253-6.253 16.37-6.253 22.63 0c6.253 6.253 6.253 16.37 0 22.63L182.6 256l132.7 132.7C321.6 394.9 321.6 405.1 315.3 411.3z"></path>
    </symbol>
    <symbol id="folder" viewBox="0 0 512 512">
        <path d="M447.1 96H272L226.7 50.75C214.7 38.74 198.5 32 181.5 32H63.1c-35.35 0-64 28.65-64 64v320c0 35.35 28.65 64 64 64h384c35.35 0 64-28.65 64-64V160C511.1 124.7 483.3 96 447.1 96zM480 416c0 17.64-14.36 32-32 32H64c-17.64 0-32-14.36-32-32V96c0-17.64 14.36-32 32-32h117.5c8.549 0 16.58 3.328 22.63 9.375L258.7 128H448c17.64 0 32 14.36 32 32V416z"></path>
    </symbol>
    <symbol id="folders" viewBox="0 0 640 512">
        <path d="M576 96H400L354.746 50.746C342.742 38.742 326.465 32 309.49 32H192C156.654 32 128 60.654 128 96V352C128 387.346 156.654 416 192 416H576C611.346 416 640 387.346 640 352V160C640 124.654 611.346 96 576 96ZM608 352C608 369.645 593.645 384 576 384H192C174.355 384 160 369.645 160 352V96C160 78.355 174.355 64 192 64H309.49C318.039 64 326.074 67.328 332.117 73.375L377.373 118.627L386.746 128H576C593.645 128 608 142.355 608 160V352ZM432 480H128C92.654 480 64 451.346 64 416V176C64 167.164 56.836 160 48 160S32 167.164 32 176V416C32 469.02 74.98 512 128 512H432C440.836 512 448 504.836 448 496S440.836 480 432 480Z"></path>
    </symbol>
    <symbol id="pen-to-square" viewBox="0 0 512 512">
        <path d="M386.7 22.63C411.7-2.365 452.3-2.365 477.3 22.63L489.4 34.74C514.4 59.74 514.4 100.3 489.4 125.3L269 345.6C260.6 354.1 249.9 359.1 238.2 362.7L147.6 383.6C142.2 384.8 136.6 383.2 132.7 379.3C128.8 375.4 127.2 369.8 128.4 364.4L149.3 273.8C152 262.1 157.9 251.4 166.4 242.1L386.7 22.63zM454.6 45.26C442.1 32.76 421.9 32.76 409.4 45.26L382.6 72L440 129.4L466.7 102.6C479.2 90.13 479.2 69.87 466.7 57.37L454.6 45.26zM180.5 281L165.3 346.7L230.1 331.5C236.8 330.2 242.2 327.2 246.4 322.1L417.4 152L360 94.63L189 265.6C184.8 269.8 181.8 275.2 180.5 281V281zM208 64C216.8 64 224 71.16 224 80C224 88.84 216.8 96 208 96H80C53.49 96 32 117.5 32 144V432C32 458.5 53.49 480 80 480H368C394.5 480 416 458.5 416 432V304C416 295.2 423.2 288 432 288C440.8 288 448 295.2 448 304V432C448 476.2 412.2 512 368 512H80C35.82 512 0 476.2 0 432V144C0 99.82 35.82 64 80 64H208z"></path>
    </symbol>
    <symbol id="bars" viewBox="0 0 448 512">
        <path d="M0 80C0 71.16 7.164 64 16 64H432C440.8 64 448 71.16 448 80C448 88.84 440.8 96 432 96H16C7.164 96 0 88.84 0 80zM0 240C0 231.2 7.164 224 16 224H432C440.8 224 448 231.2 448 240C448 248.8 440.8 256 432 256H16C7.164 256 0 248.8 0 240zM432 416H16C7.164 416 0 408.8 0 400C0 391.2 7.164 384 16 384H432C440.8 384 448 391.2 448 400C448 408.8 440.8 416 432 416z"></path>
    </symbol>
    <symbol id="arrows-repeat" viewBox="0 0 512 512">
        <path d="M176 112h211.8l-62.05 51.72c-6.781 5.656-7.703 15.75-2.047 22.53C326.9 190 331.4 192 336 192c3.609 0 7.234-1.219 10.23-3.719l96-80C445.9 105.3 448 100.7 448 95.1s-2.109-9.248-5.75-12.28l-96-80c-6.797-5.688-16.89-4.719-22.55 2.031c-5.656 6.781-4.734 16.88 2.047 22.53L387.8 80H176C78.95 80 0 158.1 0 255.1C0 264.8 7.156 272 16 272S32.01 264.8 32.01 256C32.01 176.6 96.59 112 176 112zM496 240c-8.844 0-16.01 7.156-16.01 16c0 79.41-64.59 144-143.1 144H124.2l62.05-51.72c6.781-5.656 7.703-15.75 2.047-22.53C182.7 319 172.6 318.1 165.8 323.7l-96 80C66.11 406.8 64 411.2 64 415.1s2.109 9.25 5.75 12.28l96 80C168.8 510.8 172.4 512 175.1 512c4.594 0 9.141-1.969 12.31-5.75c5.656-6.781 4.734-16.88-2.047-22.53L124.2 432H336c97.05 0 176-78.97 176-176C512 247.2 504.8 240 496 240z"></path>
    </symbol>
    <symbol id="bullseye-arrow" viewBox="0 0 512 512">
        <path d="M300.9 32.58C299.8 33.64 298.6 34.73 297.5 35.84C284.1 33.32 270.2 32 256 32C132.3 32 32 132.3 32 256C32 379.7 132.3 480 256 480C379.7 480 480 379.7 480 256C480 241.8 478.7 227.9 476.2 214.5C477.3 213.4 478.4 212.2 479.4 211.1L502.2 185.7C508.6 208 512 231.6 512 256C512 397.4 397.4 512 256 512C114.6 512 0 397.4 0 256C0 114.6 114.6 0 256 0C280.4 0 303.1 3.406 326.3 9.768L300.9 32.58zM275.5 105.2L279.7 130.2C272 128.8 264.1 127.1 255.1 127.1C185.3 127.1 127.1 185.3 127.1 255.1C127.1 326.7 185.3 384 255.1 384C326.7 384 384 326.7 384 255.1C384 247.9 383.2 239.1 381.8 232.3L406.8 236.5C409.5 236.9 412.2 237.2 414.9 237.4C415.6 243.5 416 249.7 416 255.1C416 344.4 344.4 416 256 416C167.6 416 96 344.4 96 255.1C96 167.6 167.6 95.1 256 95.1C262.3 95.1 268.5 96.36 274.6 97.07C274.8 99.78 275.1 102.5 275.5 105.2H275.5zM341.5 193.1L267.3 267.3C261.1 273.6 250.9 273.6 244.7 267.3C238.4 261.1 238.4 250.9 244.7 244.7L318.9 170.5L307.1 100.1C304.4 83.79 310.2 67.26 322.6 56.3L371.1 12.37C385.1 .7184 405.9 6.611 410.9 23.42L428.8 83.15L488.6 101.1C505.4 106.1 511.3 126.9 499.6 140L455.7 189.4C444.7 201.8 428.2 207.6 411.9 204.9L341.5 193.1zM369.3 165.3L417.2 173.3C422.6 174.2 428.1 172.3 431.8 168.2L467.4 128.1L420.6 114.1L369.3 165.3zM397.9 91.44L383.9 44.62L343.8 80.22C339.7 83.87 337.8 89.38 338.7 94.8L346.7 142.7L397.9 91.44z"></path>
    </symbol>
    <symbol id="triangle-exclamation" viewBox="0 0 512 512">
        <path d="M256 360c-13.25 0-23.1 10.74-23.1 24c0 13.25 10.75 24 23.1 24c13.25 0 23.1-10.75 23.1-24C280 370.7 269.3 360 256 360zM256 320c8.843 0 15.1-7.156 15.1-16V160c0-8.844-7.155-16-15.1-16S240 151.2 240 160v144C240 312.8 247.2 320 256 320zM504.3 397.3L304.5 59.38C294.4 42.27 276.2 32.03 256 32C235.8 32 217.7 42.22 207.5 59.36l-199.9 338c-10.05 16.97-10.2 37.34-.4218 54.5C17.29 469.5 35.55 480 56.1 480h399.9c20.51 0 38.75-10.53 48.81-28.17C514.6 434.7 514.4 414.3 504.3 397.3zM476.1 435.1C472.7 443.5 464.8 448 455.1 448H56.1c-8.906 0-16.78-4.484-21.08-12c-4.078-7.156-4.015-15.3 .1562-22.36L235.1 75.66C239.4 68.36 247.2 64 256 64c0 0-.0156 0 0 0c8.765 .0156 16.56 4.359 20.86 11.64l199.9 338C480.1 420.7 481.1 428.8 476.1 435.1z"></path>
    </symbol>
    <symbol id="arrows-rotate" viewBox="0 0 512 512">
        <path d="M464 32C455.2 32 448 39.16 448 48v129.3C416.2 99.72 340.6 48 256 48c-102 0-188.3 72.91-205.1 173.3C49.42 230.1 55.3 238.3 64.02 239.8C64.91 239.9 65.8 240 66.67 240c7.672 0 14.45-5.531 15.77-13.34C96.69 141.7 169.7 80 256 80c72.49 0 137.3 44.88 163.6 112H304C295.2 192 288 199.2 288 208S295.2 224 304 224h160C472.8 224 480 216.8 480 208v-160C480 39.16 472.8 32 464 32zM447.1 272.2c-8.766-1.562-16.97 4.406-18.42 13.12C415.3 370.3 342.3 432 255.1 432c-72.49 0-137.3-44.88-163.6-112H208C216.8 320 224 312.8 224 304S216.8 288 208 288h-160C39.16 288 32 295.2 32 304v160C32 472.8 39.16 480 48 480S64 472.8 64 464v-129.3C95.84 412.3 171.4 464 256 464c101.1 0 188.3-72.91 205.1-173.3C462.6 281.9 456.7 273.7 447.1 272.2z"></path>
    </symbol>
    <symbol id="trash" viewBox="0 0 448 512">
        <path d="M432 64C440.8 64 448 71.16 448 80C448 88.84 440.8 96 432 96H413.7L388.2 452.6C385.9 486.1 357.1 512 324.4 512H123.6C90.01 512 62.15 486.1 59.75 452.6L34.29 96H16C7.164 96 0 88.84 0 80C0 71.16 7.164 64 16 64H111.1L137 22.56C145.8 8.526 161.2 0 177.7 0H270.3C286.8 0 302.2 8.526 310.1 22.56L336.9 64H432zM177.7 32C172.2 32 167.1 34.84 164.2 39.52L148.9 64H299.1L283.8 39.52C280.9 34.84 275.8 32 270.3 32H177.7zM381.6 96H66.37L91.67 450.3C92.87 467 106.8 480 123.6 480H324.4C341.2 480 355.1 467 356.3 450.3L381.6 96z"></path>
    </symbol>
    <symbol id="file-signature" viewBox="0 0 576 512">
        <path d="M560.9 136L536 111.1c-20.25-20.25-53-20.25-73.25 0L303.5 269.8C273.4 299.8 256.1 341.3 256 383.8c-3.875-.25-7.5-2.387-9.375-6.262c-11.88-23.88-46.25-30.38-66-14.12l-13.88-41.63C163.5 311.9 154.4 305.3 144 305.3s-19.5 6.625-22.75 16.5L103 376.4C101.5 381 97.25 384 92.38 384H80C71.13 384 64 391.1 64 400S71.13 416 80 416h12.4c18.62 0 35.1-11.88 40.98-29.5L144 354.6L160.8 405C165.4 418.6 184 419.9 190.3 407.1l7.749-15.38c4-8 15.69-8.5 20.19 .375C225.4 406.6 239.9 415.7 256 415.9L288 416c66.84 0 112.1-46.3 114.1-47.5l158.8-159.3C570.6 199.5 576 186.4 576 172.6C576 158.8 570.6 145.8 560.9 136zM379.5 346C355.3 370.3 322.4 383.9 288 383.9c0-34.38 13.75-67.32 37.1-91.44l120.6-119.9l52.75 52.75L379.5 346zM538.3 186.6L517 207.8L464.3 155l21.12-21.25c7.75-7.625 20.25-7.749 28 0l24.88 24.88C545.9 166.4 545.9 178.9 538.3 186.6zM364.4 448c-6.629 0-13.1 3.795-15.2 10.1C344.1 470.8 333 480 318.1 480h-255.2c-17.62 0-31.89-14.33-31.89-32V64c0-17.67 14.28-32 31.89-32h127.6v112c0 26.51 21.42 48 47.84 48h64.07c8.652 0 15.66-7.037 15.66-15.72V175.7C318.1 167 311.9 160 303.3 160H239.2C230.4 160 223.3 152.8 223.3 144V34.08c4.461 1.566 8.637 3.846 12.08 7.299l89.85 90.14c6.117 6.139 16.04 6.139 22.15 0L347.7 131.1c6.117-6.139 6.117-16.09 0-22.23L257.9 18.75C245.9 6.742 229.7 0 212.8 0H63.93C28.7 0 0 28.65 0 64l.0065 384c0 35.35 28.7 64 63.93 64h255c28.2 0 52.12-18.36 60.55-43.8C382.8 458.2 374.9 448 364.4 448z"></path>
    </symbol>
    <symbol id="folder-heart" viewBox="0 0 512 512">
        <path d="M448 96h-176L226.7 50.75C214.7 38.74 198.5 32 181.5 32H64C28.65 32 0 60.65 0 96v320c0 35.35 28.65 64 64 64h384c35.35 0 64-28.65 64-64V160C512 124.7 483.3 96 448 96zM480 416c0 17.64-14.36 32-32 32H64c-17.64 0-32-14.36-32-32V96c0-17.64 14.36-32 32-32h117.5c8.549 0 16.58 3.328 22.63 9.375L258.7 128H448c17.64 0 32 14.36 32 32V416zM255.9 219.7c-42.64-43-76.29-26.04-90.17-14.41c-27.51 23-28.89 64.13-4.252 89l84.79 85.63c5.502 5.5 13.92 5.5 19.42 0l84.87-85.63c24.64-24.88 23.14-66-4.377-89C332.3 193.6 298.4 176.7 255.9 219.7zM327.9 271.7l-72.03 72.63L184.1 271.7c-10.38-10.38-12.38-30 2-42c13.76-11.5 31.26-3.377 38.52 3.75l31.39 31.75l31.39-31.75c7.129-7.252 24.64-15.25 38.39-3.75C340.2 241.7 338.2 261.4 327.9 271.7z"></path>
    </symbol>
    <symbol id="folder-open" viewBox="0 0 576 512">
        <path d="M566.6 211.6C557.5 199.1 543.4 192 527.1 192H134.2C114.3 192 96.2 204.5 89.23 223.1L32 375.8V96c0-17.64 14.36-32 32-32h117.5c8.549 0 16.58 3.328 22.63 9.375L258.7 128H448c17.64 0 32 14.36 32 32h32c0-35.35-28.65-64-64-64H272L226.7 50.75C214.7 38.74 198.5 32 181.5 32H64C28.65 32 0 60.65 0 96v320c0 35.35 28.65 64 64 64h403.1c21.11 0 39.53-13.53 45.81-33.69l60-192C578.4 239.6 575.8 224 566.6 211.6zM543.2 244.8l-60 192C481.1 443.5 475 448 467.1 448H64c-3.322 0-6.357-.9551-9.373-1.898c-2.184-1.17-4.109-2.832-5.596-4.977c-3.031-4.375-3.703-9.75-1.828-14.73l72-192C121.5 228.2 127.5 224 134.2 224h393.8c5.141 0 9.844 2.375 12.89 6.516C543.9 234.7 544.8 239.9 543.2 244.8z"></path>
    </symbol>
    <symbol id="title" viewBox="0 0 48 48">
        <g fill="none" stroke="currentColor" stroke-linecap="round" stroke-width="4">
            <path stroke-linejoin="round" d="M6 8v32M24 8v32M7 24h16" />
            <path d="M32 24v16m0-8.976C32 28.46 34 26 37 26s5 2.358 5 5.024v8.99" />
        </g>
    </symbol>
    <symbol id="pen-ruler" viewBox="0 0 512 512">
        <path d="M373.2 16.97C395.1-4.901 430.5-4.901 452.4 16.97L495 59.6C516.9 81.47 516.9 116.9 495 138.8L182.3 451.6C170.9 462.9 156.9 471.2 141.5 475.8L20.52 511.3C14.9 512.1 8.827 511.5 4.687 507.3C.5466 503.2-1.002 497.1 .6506 491.5L36.23 370.5C40.76 355.1 49.09 341.1 60.44 329.7L373.2 16.97zM429.8 39.6C420.4 30.22 405.2 30.22 395.8 39.6L341 94.4L417.6 170.1L472.4 116.2C481.8 106.8 481.8 91.6 472.4 82.23L429.8 39.6zM66.93 379.5L39.63 472.4L132.4 445.1C142.7 442 152.1 436.5 159.6 428.9L394.1 193.6L318.4 117L83.07 352.4C75.5 359.9 69.95 369.3 66.93 379.5V379.5zM173.3 27.31L244.1 98.18L221.5 120.8L189.7 88.97L155.3 123.3C149.1 129.6 138.9 129.6 132.7 123.3C126.4 117.1 126.4 106.9 132.7 100.7L167 66.34L150.6 49.94C138.1 37.44 117.9 37.44 105.4 49.94L49.94 105.4C37.44 117.9 37.44 138.1 49.94 150.6L120.8 221.5L98.18 244.1L27.31 173.3C2.32 148.3 2.32 107.7 27.31 82.75L82.75 27.31C107.7 2.32 148.3 2.32 173.3 27.31V27.31zM338.7 484.7L267.9 413.8L290.5 391.2L361.4 462.1C373.9 474.6 394.1 474.6 406.6 462.1L462.1 406.6C474.6 394.1 474.6 373.9 462.1 361.4L445.7 344.1L411.3 379.3C405.1 385.6 394.9 385.6 388.7 379.3C382.4 373.1 382.4 362.9 388.7 356.7L423 322.3L391.2 290.5L413.8 267.9L484.7 338.7C509.7 363.7 509.7 404.3 484.7 429.3L429.3 484.7C404.3 509.7 363.7 509.7 338.7 484.7V484.7z"></path>
    </symbol>
    <symbol id="computer" viewBox="0 0 640 512">
        <path d="M0 320V96C0 60.65 28.65 32 64 32H384C419.3 32 448 60.65 448 96V320C448 355.3 419.3 384 384 384H286.2L307.5 448H368C376.8 448 384 455.2 384 464C384 472.8 376.8 480 368 480H80C71.16 480 64 472.8 64 464C64 455.2 71.16 448 80 448H140.5L161.8 384H64C28.65 384 0 355.3 0 320H0zM384 64H64C46.33 64 32 78.33 32 96V320C32 337.7 46.33 352 64 352H384C401.7 352 416 337.7 416 320V96C416 78.33 401.7 64 384 64zM273.8 448L252.5 384H195.5L174.2 448H273.8zM536 336C536 322.7 546.7 312 560 312C573.3 312 584 322.7 584 336C584 349.3 573.3 360 560 360C546.7 360 536 349.3 536 336zM480 80C480 53.49 501.5 32 528 32H592C618.5 32 640 53.49 640 80V432C640 458.5 618.5 480 592 480H528C501.5 480 480 458.5 480 432V80zM512 80V128H608V80C608 71.16 600.8 64 592 64H528C519.2 64 512 71.16 512 80zM512 160V192H608V160H512zM528 448H592C600.8 448 608 440.8 608 432V224H512V432C512 440.8 519.2 448 528 448z"></path>
    </symbol>

    <symbol id="floppy-disk" viewBox="0 0 448 512">
        <path d="M350.062 55.438C334.938 40.328 314.875 32 293.5 32H80C35.875 32 0 67.891 0 112V400C0 444.109 35.875 480 80 480H368C412.125 480 448 444.109 448 400V186.516C448 165.141 439.688 145.047 424.562 129.938L350.062 55.438ZM96 64H288V160H96V64ZM416 400C416 426.469 394.469 448 368 448H80C53.531 448 32 426.469 32 400V112C32 91.168 45.416 73.574 64 66.947V160C64 177.672 78.326 192 96 192H288C305.674 192 320 177.672 320 160V72.02C322.664 73.777 325.166 75.791 327.438 78.063L401.938 152.563C411 161.641 416 173.688 416 186.516V400ZM224 240C179.875 240 144 275.891 144 320S179.875 400 224 400S304 364.109 304 320S268.125 240 224 240ZM224 368C197.531 368 176 346.469 176 320S197.531 272 224 272S272 293.531 272 320S250.469 368 224 368Z"></path>
    </symbol>
    <symbol id="house" viewBox="0 0 576 512">
        <path d="M576.001 256.01C576.001 251.575 574.169 247.161 570.577 244L511.947 192.266C511.949 192.172 511.999 192.094 511.999 192V48C511.999 39.156 504.843 32 495.999 32H400C391.156 32 384 39.156 384 48V79.373L298.579 4C295.563 1.344 291.782 0.016 288.001 0.016S280.438 1.344 277.422 4L5.424 244C1.832 247.161 0 251.575 0 256.01C0 264.934 7.243 271.993 16.05 271.993C19.808 271.993 23.57 270.68 26.58 268L64.002 234.982V432C64.002 476.125 99.892 512 144.001 512H432C476.109 512 511.999 476.125 511.999 432V234.982L549.421 268C552.452 270.688 556.233 272 559.999 272C568.726 272 576.001 264.947 576.001 256.01ZM416 64H479.999V164.078L416 107.608V64ZM479.999 208V432C479.999 458.469 458.468 480 432 480H144.001C117.533 480 96.002 458.469 96.002 432V208C96.002 207.623 95.812 207.309 95.787 206.938L288.001 37.344L480.214 206.938C480.189 207.309 479.999 207.623 479.999 208ZM208.421 218.625V325.375C208.421 340 220.421 352 235.046 352H341.67C356.42 352 368.42 340 368.42 325.375V218.625C368.42 204 356.42 192 341.67 192H235.046C220.421 192 208.421 204 208.421 218.625ZM240.421 224H336.42V320H240.421V224Z "></path>
    </symbol>
    <symbol id="ban" viewBox="0 0 512 512">
        <path d="M256 16C123.451 16 16 123.451 16 256S123.451 496 256 496S496 388.549 496 256S388.549 16 256 16ZM464 256C464 307.598 445.004 354.766 413.783 391.158L120.842 98.217C157.234 66.996 204.402 48 256 48C370.691 48 464 141.309 464 256ZM48 256C48 204.402 66.996 157.234 98.217 120.842L391.158 413.783C354.766 445.004 307.598 464 256 464C141.309 464 48 370.691 48 256Z"></path>
    </symbol>
    <symbol id="minus" viewBox="0 0 448 512">
        <path d="M432 256C432 264.844 424.844 272 416 272H32C23.156 272 16 264.844 16 256S23.156 240 32 240H416C424.844 240 432 247.156 432 256Z"></path>
    </symbol>
    <symbol id="play" viewBox="0 0 512 512">
        <path d="M489.031 215.047L201.031 39.047C193.365 34.367 184.697 32.016 176.012 32.016C148.396 32.016 128 54.619 128 80V432C128 457.607 148.615 480 176 480C184.688 480 193.359 477.641 201.031 472.953L489.031 296.953C503.297 288.234 512 272.719 512 256S503.297 223.766 489.031 215.047ZM472.346 269.648L184.348 445.646C181.828 447.186 178.941 448 176 448C166.117 448 160 439.695 160 432V80C160 72.312 166.121 64.016 176.012 64.016C178.961 64.016 181.848 64.826 184.346 66.352L472.344 242.352C477.066 245.236 480 250.467 480 256C480 261.531 477.066 266.762 472.346 269.648Z"></path>
    </symbol>
    <symbol id="right-to-bracket" viewBox="0 0 512 512">
        <path d="M384 256C384 247.812 380.875 239.625 374.625 233.375L246.625 105.375C237.469 96.219 223.719 93.469 211.75 98.438C199.797 103.375 192 115.062 192 128V192H48C21.492 192 0 213.492 0 240V272C0 298.508 21.492 320 48 320H192V384C192 396.938 199.797 408.625 211.75 413.562C223.719 418.531 237.469 415.781 246.625 406.625L374.625 278.625C380.875 272.375 384 264.188 384 256ZM224 384V288H48C39.176 288 32 280.82 32 272V240C32 231.18 39.176 224 48 224H224V192L223.996 128L351.996 256L224 384ZM432 32H336C327.156 32 320 39.156 320 48S327.156 64 336 64H432C458.469 64 480 85.531 480 112V400C480 426.469 458.469 448 432 448H336C327.156 448 320 455.156 320 464S327.156 480 336 480H432C476.125 480 512 444.125 512 400V112C512 67.875 476.125 32 432 32Z"></path>
    </symbol>
    <symbol id="angle-left" viewBox="0 0 256 512">
        <path d="M203.893 405.271C209.77 411.865 209.254 421.959 202.705 427.896C196.143 433.803 186.018 433.271 180.111 426.709L36.102 266.719C30.633 260.594 30.633 251.406 36.102 245.281L180.111 85.291C186.018 78.729 196.143 78.197 202.705 84.104C209.623 90.375 209.488 100.498 203.893 106.729L69.525 256L203.893 405.271Z"></path>
    </symbol>
</svg>