<svg xmlns="http://www.w3.org/2000/svg" style="display: none;">
    <symbol id="angle-left" viewBox="0 0 256 512">
        <path d="M203.893 405.271C209.77 411.865 209.254 421.959 202.705 427.896C196.143 433.803 186.018 433.271 180.111 426.709L36.102 266.719C30.633 260.594 30.633 251.406 36.102 245.281L180.111 85.291C186.018 78.729 196.143 78.197 202.705 84.104C209.623 90.375 209.488 100.498 203.893 106.729L69.525 256L203.893 405.271Z" />
    </symbol>
    <symbol id="angle-right" viewBox="0 0 256 512">
        <path d="M219.9 266.7L75.89 426.7c-5.906 6.562-16.03 7.094-22.59 1.188c-6.918-6.271-6.783-16.39-1.188-22.62L186.5 256L52.11 106.7C46.23 100.1 46.75 90.04 53.29 84.1C59.86 78.2 69.98 78.73 75.89 85.29l144 159.1C225.4 251.4 225.4 260.6 219.9 266.7z" />
    </symbol>
    <symbol id="angle-down" viewBox="0 0 384 512">
        <path d="M362.7 203.9l-159.1 144c-6.125 5.469-15.31 5.469-21.44 0L21.29 203.9C14.73 197.1 14.2 187.9 20.1 181.3C26.38 174.4 36.5 174.5 42.73 180.1L192 314.5l149.3-134.4c6.594-5.877 16.69-5.361 22.62 1.188C369.8 187.9 369.3 197.1 362.7 203.9z" />
    </symbol>
    <symbol id="arrow-rotate-left" viewBox="0 0 512 512">
        <path d="M480 256c0 123.5-100.4 223.9-223.9 223.9c-69.41 0-133.9-31.3-176.7-86.05c-5.438-6.938-4.203-17 2.75-22.44c6.984-5.531 17.03-4.25 22.47 2.75C141.3 421.1 196.5 448 256 448c105.9 0 192-86.13 192-192s-86.13-192-192-192C187.1 64 124.5 100.7 90.15 160H176C184.8 160 192 167.2 192 176S184.8 192 176 192h-128C39.16 192 32 184.8 32 176v-128C32 39.16 39.16 32 48 32S64 39.16 64 48v93.56C104.4 73.87 176.6 32.11 256.1 32.11C379.6 32.11 480 132.5 480 256z" />
    </symbol>
    <symbol id="person-biking" viewBox="0 0 640 512">
        <path d="M336 56C336 25.07 361.1 0 392 0C422.9 0 448 25.07 448 56C448 86.93 422.9 112 392 112C361.1 112 336 86.93 336 56zM392 80C405.3 80 416 69.25 416 56C416 42.75 405.3 32 392 32C378.7 32 368 42.75 368 56C368 69.25 378.7 80 392 80zM256 384C256 454.7 198.7 512 128 512C57.31 512 0 454.7 0 384C0 313.3 57.31 256 128 256C198.7 256 256 313.3 256 384zM128 480C181 480 224 437 224 384C224 330.1 181 288 128 288C74.98 288 32 330.1 32 384C32 437 74.98 480 128 480zM640 384C640 454.7 582.7 512 512 512C441.3 512 384 454.7 384 384C384 313.3 441.3 256 512 256C582.7 256 640 313.3 640 384zM512 480C565 480 608 437 608 384C608 330.1 565 288 512 288C458.1 288 416 330.1 416 384C416 437 458.1 480 512 480zM250 217.1C242 223.9 242.7 236.4 251.4 242.4L345.1 306.8C349.4 309.8 352 314.7 352 320V416C352 424.8 344.8 432 336 432C327.2 432 320 424.8 320 416V328.4L233.2 268.8C207.3 250.9 205.3 213.3 229.2 192.8L288.2 142.1C306.6 126.4 333.7 126.8 351.6 142.9L406.1 192H480C488.8 192 496 199.2 496 208C496 216.8 488.8 224 480 224H400C396 224 392.2 222.5 389.3 219.9L330.2 166.7C324.2 161.3 315.2 161.2 309.1 166.4L250 217.1z" />
    </symbol>
    <symbol id="xmark" viewBox="0 0 320 512">
        <path d="M315.3 411.3c-6.253 6.253-16.37 6.253-22.63 0L160 278.6l-132.7 132.7c-6.253 6.253-16.37 6.253-22.63 0c-6.253-6.253-6.253-16.37 0-22.63L137.4 256L4.69 123.3c-6.253-6.253-6.253-16.37 0-22.63c6.253-6.253 16.37-6.253 22.63 0L160 233.4l132.7-132.7c6.253-6.253 16.37-6.253 22.63 0c6.253 6.253 6.253 16.37 0 22.63L182.6 256l132.7 132.7C321.6 394.9 321.6 405.1 315.3 411.3z" />
    </symbol>
    <symbol id="circle-check" viewBox="0 0 512 512">
        <path d="M235.3 331.3C229.1 337.6 218.9 337.6 212.7 331.3L148.7 267.3C142.4 261.1 142.4 250.9 148.7 244.7C154.9 238.4 165.1 238.4 171.3 244.7L224 297.4L340.7 180.7C346.9 174.4 357.1 174.4 363.3 180.7C369.6 186.9 369.6 197.1 363.3 203.3L235.3 331.3zM512 256C512 397.4 397.4 512 256 512C114.6 512 0 397.4 0 256C0 114.6 114.6 0 256 0C397.4 0 512 114.6 512 256zM256 32C132.3 32 32 132.3 32 256C32 379.7 132.3 480 256 480C379.7 480 480 379.7 480 256C480 132.3 379.7 32 256 32z" />
    </symbol>
    <symbol id="calendar-arrow-down" viewBox="0 0 448 512">
        <path d="M240 377.4L292.7 324.7C298.9 318.4 309.1 318.4 315.3 324.7C321.6 330.9 321.6 341.1 315.3 347.3L235.3 427.3C229.1 433.6 218.9 433.6 212.7 427.3L132.7 347.3C126.4 341.1 126.4 330.9 132.7 324.7C138.9 318.4 149.1 318.4 155.3 324.7L208 377.4V256C208 247.2 215.2 240 224 240C232.8 240 240 247.2 240 256L240 377.4zM128 64H320V16C320 7.164 327.2 0 336 0C344.8 0 352 7.164 352 16V64H384C419.3 64 448 92.65 448 128V448C448 483.3 419.3 512 384 512H64C28.65 512 0 483.3 0 448V128C0 92.65 28.65 64 64 64H96V16C96 7.164 103.2 0 112 0C120.8 0 128 7.164 128 16V64zM32 448C32 465.7 46.33 480 64 480H384C401.7 480 416 465.7 416 448V192H32V448zM32 128V160H416V128C416 110.3 401.7 96 384 96H64C46.33 96 32 110.3 32 128z" />
    </symbol>
    <symbol id="calendar-arrow-up" viewBox="0 0 448 512">
        <path d="M208 294.6L155.3 347.3C149.1 353.6 138.9 353.6 132.7 347.3C126.4 341.1 126.4 330.9 132.7 324.7L212.7 244.7C218.9 238.4 229.1 238.4 235.3 244.7L315.3 324.7C321.6 330.9 321.6 341.1 315.3 347.3C309.1 353.6 298.9 353.6 292.7 347.3L240 294.6V416C240 424.8 232.8 432 223.1 432C215.2 432 207.1 424.8 207.1 416L208 294.6zM128 64H320V16C320 7.164 327.2 0 336 0C344.8 0 352 7.164 352 16V64H384C419.3 64 448 92.65 448 128V448C448 483.3 419.3 512 384 512H64C28.65 512 0 483.3 0 448V128C0 92.65 28.65 64 64 64H96V16C96 7.164 103.2 0 112 0C120.8 0 128 7.164 128 16V64zM32 448C32 465.7 46.33 480 64 480H384C401.7 480 416 465.7 416 448V192H32V448zM32 128V160H416V128C416 110.3 401.7 96 384 96H64C46.33 96 32 110.3 32 128z" />
    </symbol>
    <symbol id="chart-waterfall" viewBox="0 0 512 512">
        <path d="M16 32C24.84 32 32 39.16 32 48V400C32 426.5 53.49 448 80 448H496C504.8 448 512 455.2 512 464C512 472.8 504.8 480 496 480H80C35.82 480 0 444.2 0 400V48C0 39.16 7.164 32 16 32zM144 224C152.8 224 160 231.2 160 240V336C160 344.8 152.8 352 144 352C135.2 352 128 344.8 128 336V240C128 231.2 135.2 224 144 224zM256 240C256 248.8 248.8 256 240 256C231.2 256 224 248.8 224 240V144C224 135.2 231.2 128 240 128C248.8 128 256 135.2 256 144V240zM336 64C344.8 64 352 71.16 352 80V176C352 184.8 344.8 192 336 192C327.2 192 320 184.8 320 176V80C320 71.16 327.2 64 336 64zM448 336C448 344.8 440.8 352 432 352C423.2 352 416 344.8 416 336V80C416 71.16 423.2 64 432 64C440.8 64 448 71.16 448 80V336z" />
    </symbol>
    <symbol id="circle-info" viewBox="0 0 512 512">
        <path d="M256 0C114.6 0 0 114.6 0 256s114.6 256 256 256s256-114.6 256-256S397.4 0 256 0zM256 480c-123.5 0-224-100.5-224-224s100.5-224 224-224s224 100.5 224 224S379.5 480 256 480zM256 184c13.25 0 24-10.74 24-24c0-13.25-10.75-24-24-24S232 146.7 232 160C232 173.3 242.7 184 256 184zM304 352h-32V240C272 231.2 264.8 224 256 224H224C215.2 224 208 231.2 208 240S215.2 256 224 256h16v96h-32C199.2 352 192 359.2 192 368C192 376.8 199.2 384 208 384h96c8.836 0 16-7.164 16-16C320 359.2 312.8 352 304 352z" />
    </symbol>
    <symbol id="calendar-arrow-down" viewBox="0 0 448 512">
        <path d="M240 377.4L292.7 324.7C298.9 318.4 309.1 318.4 315.3 324.7C321.6 330.9 321.6 341.1 315.3 347.3L235.3 427.3C229.1 433.6 218.9 433.6 212.7 427.3L132.7 347.3C126.4 341.1 126.4 330.9 132.7 324.7C138.9 318.4 149.1 318.4 155.3 324.7L208 377.4V256C208 247.2 215.2 240 224 240C232.8 240 240 247.2 240 256L240 377.4zM128 64H320V16C320 7.164 327.2 0 336 0C344.8 0 352 7.164 352 16V64H384C419.3 64 448 92.65 448 128V448C448 483.3 419.3 512 384 512H64C28.65 512 0 483.3 0 448V128C0 92.65 28.65 64 64 64H96V16C96 7.164 103.2 0 112 0C120.8 0 128 7.164 128 16V64zM32 448C32 465.7 46.33 480 64 480H384C401.7 480 416 465.7 416 448V192H32V448zM32 128V160H416V128C416 110.3 401.7 96 384 96H64C46.33 96 32 110.3 32 128z" />
    </symbol>
    <symbol id="calendar-arrow-up" viewBox="0 0 448 512">
        <path d="M208 294.6L155.3 347.3C149.1 353.6 138.9 353.6 132.7 347.3C126.4 341.1 126.4 330.9 132.7 324.7L212.7 244.7C218.9 238.4 229.1 238.4 235.3 244.7L315.3 324.7C321.6 330.9 321.6 341.1 315.3 347.3C309.1 353.6 298.9 353.6 292.7 347.3L240 294.6V416C240 424.8 232.8 432 223.1 432C215.2 432 207.1 424.8 207.1 416L208 294.6zM128 64H320V16C320 7.164 327.2 0 336 0C344.8 0 352 7.164 352 16V64H384C419.3 64 448 92.65 448 128V448C448 483.3 419.3 512 384 512H64C28.65 512 0 483.3 0 448V128C0 92.65 28.65 64 64 64H96V16C96 7.164 103.2 0 112 0C120.8 0 128 7.164 128 16V64zM32 448C32 465.7 46.33 480 64 480H384C401.7 480 416 465.7 416 448V192H32V448zM32 128V160H416V128C416 110.3 401.7 96 384 96H64C46.33 96 32 110.3 32 128z" />
    </symbol>
    <symbol id="lightbulb" viewBox="0 0 384 512">
        <path d="M255.9 415.1H128.1c-8.846 0-15.98 7.179-15.97 16.03L112.1 454.3c.0098 6.273 1.81 12.47 5.284 17.69l17.14 25.69c5.225 7.855 17.2 14.28 26.64 14.28h61.67c9.418 0 21.39-6.436 26.61-14.28l17.08-25.68c2.953-4.441 5.341-12.37 5.348-17.7l-.0521-22.33C271.8 423.2 264.7 415.1 255.9 415.1zM239.9 454.4l-16.11 24.45c-.4766 .4336-1.686 1.082-.8672 1.117l-60.29 .1172c-.4238-.1055-1.138-.2793-1.423-.2793c-.1406 0-.1348-.2265 0 0l-17.1-25.48l-.0098-6.37h95.94l.0039 5.179C239.9 453.6 239.7 454.4 239.9 454.4C239.9 454.4 239.8 454.5 239.9 454.4zM315.8 51.3c-33.33-33.22-78.22-52.47-124.3-51.28C94.7 .2944 16 79.89 16 177.4c0 42.9 15.47 84.34 43.55 116.6c13.33 15.31 35.84 49.59 43.73 76.02c1.078 8.687 8.844 14.62 17.64 13.72c8.703-.9687 14.98-8.968 14.11-17.65l-.6094-3.312c-10.31-34.97-36-72.84-50.73-89.77C60.67 246.5 48 212.6 48 177.4c0-81.24 63.05-145.1 143.5-145.3H192c38.13 0 74.05 14.87 101.2 41.93C320.8 101.5 336 138.2 336 177.4c0 35.18-12.67 69.15-35.67 95.62c-14.75 16.94-40.44 54.81-50.75 89.77l-.625 3.343c-1.047 8.749 4.938 17.59 13.67 18.69c.7813 .0938 1.531 .1562 2.281 .1562c7.797 0 14.36-5.124 15.36-13.12c8.344-28.25 30.86-62.52 44.2-77.84C352.5 261.7 368 220.3 368 177.4C368 129.7 349.5 84.89 315.8 51.3zM208 80.01c0-8.843-7.156-16-16-16c-61.75 0-112 50.24-112 111.1C80 184.8 87.16 192 96 192s16-7.158 16-16c0-44.1 35.88-79.1 80-79.1C200.8 96.01 208 88.86 208 80.01z" />
    </symbol>
    <symbol id="badge-check" viewBox="0 0 512 512">
        <path d="M235.3 331.3C229.1 337.6 218.9 337.6 212.7 331.3L156.7 275.3C150.4 269.1 150.4 258.9 156.7 252.7C162.9 246.4 173.1 246.4 179.3 252.7L224 297.4L324.7 196.7C330.9 190.4 341.1 190.4 347.3 196.7C353.6 202.9 353.6 213.1 347.3 219.3L235.3 331.3zM343.1 45.63C376.1 39.67 411.5 49.43 437 74.98C462.6 100.5 472.3 135.9 466.4 168.9C493.9 187.1 512 219.9 512 255.1C512 292.1 493.9 324 466.4 343.1C472.3 376.1 462.6 411.5 437 437C411.5 462.6 376.1 472.3 343.1 466.4C324 493.9 292.1 512 256 512C219.9 512 187.1 493.9 168.9 466.4C135.9 472.3 100.5 462.6 74.98 437C49.43 411.5 39.67 376.1 45.63 343.1C18.08 324 0 292.1 0 255.1C0 219.9 18.08 187.1 45.63 168.9C39.67 135.9 49.43 100.5 74.98 74.98C100.5 49.43 135.9 39.67 168.9 45.63C187.1 18.08 219.9 0 255.1 0C292.1 0 324 18.08 343.1 45.63L343.1 45.63zM184.4 83.08L171.7 79.2C146.3 71.4 117.6 77.57 97.61 97.61C77.57 117.6 71.4 146.3 79.2 171.7L83.08 184.4L71.4 190.6C47.93 203 32 227.7 32 255.1C32 284.3 47.93 308.1 71.4 321.4L83.08 327.6L79.2 340.3C71.4 365.7 77.57 394.3 97.61 414.4C117.6 434.4 146.3 440.6 171.7 432.8L184.4 428.9L190.6 440.6C203 464.1 227.7 480 256 480C284.3 480 308.1 464.1 321.4 440.6L327.6 428.9L340.3 432.8C365.7 440.6 394.3 434.4 414.4 414.4C434.4 394.3 440.6 365.7 432.8 340.3L428.9 327.6L440.6 321.4C464.1 308.1 480 284.3 480 255.1C480 227.7 464.1 203 440.6 190.6L428.9 184.4L432.8 171.7C440.6 146.3 434.4 117.6 414.4 97.6C394.4 77.56 365.7 71.4 340.3 79.2L327.6 83.08L321.4 71.4C308.1 47.93 284.3 31.1 256 31.1C227.7 31.1 203 47.93 190.6 71.4L184.4 83.08z" />
    </symbol>
    <symbol id="triangle-exclamation" viewBox="0 0 512 512">
        <path d="M256 360c-13.25 0-23.1 10.74-23.1 24c0 13.25 10.75 24 23.1 24c13.25 0 23.1-10.75 23.1-24C280 370.7 269.3 360 256 360zM256 320c8.843 0 15.1-7.156 15.1-16V160c0-8.844-7.155-16-15.1-16S240 151.2 240 160v144C240 312.8 247.2 320 256 320zM504.3 397.3L304.5 59.38C294.4 42.27 276.2 32.03 256 32C235.8 32 217.7 42.22 207.5 59.36l-199.9 338c-10.05 16.97-10.2 37.34-.4218 54.5C17.29 469.5 35.55 480 56.1 480h399.9c20.51 0 38.75-10.53 48.81-28.17C514.6 434.7 514.4 414.3 504.3 397.3zM476.1 435.1C472.7 443.5 464.8 448 455.1 448H56.1c-8.906 0-16.78-4.484-21.08-12c-4.078-7.156-4.015-15.3 .1562-22.36L235.1 75.66C239.4 68.36 247.2 64 256 64c0 0-.0156 0 0 0c8.765 .0156 16.56 4.359 20.86 11.64l199.9 338C480.1 420.7 481.1 428.8 476.1 435.1z" />
    </symbol>
    <symbol id="trash-can" viewBox="0 0 448 512">
        <path d="M144 400C144 408.8 136.8 416 128 416C119.2 416 112 408.8 112 400V176C112 167.2 119.2 160 128 160C136.8 160 144 167.2 144 176V400zM240 400C240 408.8 232.8 416 224 416C215.2 416 208 408.8 208 400V176C208 167.2 215.2 160 224 160C232.8 160 240 167.2 240 176V400zM336 400C336 408.8 328.8 416 320 416C311.2 416 304 408.8 304 400V176C304 167.2 311.2 160 320 160C328.8 160 336 167.2 336 176V400zM310.1 22.56L336.9 64H432C440.8 64 448 71.16 448 80C448 88.84 440.8 96 432 96H416V432C416 476.2 380.2 512 336 512H112C67.82 512 32 476.2 32 432V96H16C7.164 96 0 88.84 0 80C0 71.16 7.164 64 16 64H111.1L137 22.56C145.8 8.526 161.2 0 177.7 0H270.3C286.8 0 302.2 8.526 310.1 22.56V22.56zM148.9 64H299.1L283.8 39.52C280.9 34.84 275.8 32 270.3 32H177.7C172.2 32 167.1 34.84 164.2 39.52L148.9 64zM64 432C64 458.5 85.49 480 112 480H336C362.5 480 384 458.5 384 432V96H64V432z" />
    </symbol>
    <symbol id="copy" viewBox="0 0 512 512">
        <path d="M272 416C263.2 416 256 423.2 256 432V448c0 17.67-14.33 32-32 32H64c-17.67 0-32-14.33-32-32V192c0-17.67 14.33-32 32-32h112C184.8 160 192 152.8 192 144C192 135.2 184.8 128 176 128H63.99c-35.35 0-64 28.65-64 64l.0098 256C0 483.3 28.65 512 64 512h160c35.35 0 64-28.65 64-64v-16C288 423.2 280.8 416 272 416zM502.6 86.63l-77.25-77.25C419.4 3.371 411.2 0 402.7 0H288C252.7 0 224 28.65 224 64v256c0 35.35 28.65 64 64 64h160c35.35 0 64-28.65 64-64V109.3C512 100.8 508.6 92.63 502.6 86.63zM416 45.25L466.7 96H416V45.25zM480 320c0 17.67-14.33 32-32 32h-160c-17.67 0-32-14.33-32-32V64c0-17.67 14.33-32 32-32h96l.0026 64c0 17.67 14.33 32 32 32H480V320z" />
    </symbol>
    <symbol id="pen-to-square" viewBox="0 0 512 512">
        <path d="M386.7 22.63C411.7-2.365 452.3-2.365 477.3 22.63L489.4 34.74C514.4 59.74 514.4 100.3 489.4 125.3L269 345.6C260.6 354.1 249.9 359.1 238.2 362.7L147.6 383.6C142.2 384.8 136.6 383.2 132.7 379.3C128.8 375.4 127.2 369.8 128.4 364.4L149.3 273.8C152 262.1 157.9 251.4 166.4 242.1L386.7 22.63zM454.6 45.26C442.1 32.76 421.9 32.76 409.4 45.26L382.6 72L440 129.4L466.7 102.6C479.2 90.13 479.2 69.87 466.7 57.37L454.6 45.26zM180.5 281L165.3 346.7L230.1 331.5C236.8 330.2 242.2 327.2 246.4 322.1L417.4 152L360 94.63L189 265.6C184.8 269.8 181.8 275.2 180.5 281V281zM208 64C216.8 64 224 71.16 224 80C224 88.84 216.8 96 208 96H80C53.49 96 32 117.5 32 144V432C32 458.5 53.49 480 80 480H368C394.5 480 416 458.5 416 432V304C416 295.2 423.2 288 432 288C440.8 288 448 295.2 448 304V432C448 476.2 412.2 512 368 512H80C35.82 512 0 476.2 0 432V144C0 99.82 35.82 64 80 64H208z" />
    </symbol>
    <symbol id="clock-rotate-left" viewBox="0 0 512 512">
        <path d="M256 0C397.4 0 512 114.6 512 256C512 397.4 397.4 512 256 512C172.2 512 97.87 471.8 51.19 409.6C45.88 402.5 47.31 392.5 54.37 387.2C61.44 381.9 71.47 383.3 76.78 390.4C117.7 444.8 182.7 480 256 480C379.7 480 480 379.7 480 256C480 132.3 379.7 32 256 32C166.7 32 89.51 84.3 53.55 160H144C152.8 160 160 167.2 160 176C160 184.8 152.8 192 144 192H16C7.164 192 0 184.8 0 176V48C0 39.16 7.164 32 16 32C24.84 32 32 39.16 32 48V131.1C75.66 53.29 159.6 0 256 0zM256 128C264.8 128 272 135.2 272 144V249.4L347.3 324.7C353.6 330.9 353.6 341.1 347.3 347.3C341.1 353.6 330.9 353.6 324.7 347.3L244.7 267.3C241.7 264.3 239.1 260.2 239.1 256V144C239.1 135.2 247.2 128 255.1 128H256z" />
    </symbol>
    <symbol id="circle-check" viewBox="0 0 512 512">
        <path d="M235.3 331.3C229.1 337.6 218.9 337.6 212.7 331.3L148.7 267.3C142.4 261.1 142.4 250.9 148.7 244.7C154.9 238.4 165.1 238.4 171.3 244.7L224 297.4L340.7 180.7C346.9 174.4 357.1 174.4 363.3 180.7C369.6 186.9 369.6 197.1 363.3 203.3L235.3 331.3zM512 256C512 397.4 397.4 512 256 512C114.6 512 0 397.4 0 256C0 114.6 114.6 0 256 0C397.4 0 512 114.6 512 256zM256 32C132.3 32 32 132.3 32 256C32 379.7 132.3 480 256 480C379.7 480 480 379.7 480 256C480 132.3 379.7 32 256 32z" />
    </symbol>
    <symbol id="clock" viewBox="0 0 512 512">
        <path d="M240 112C240 103.2 247.2 96 256 96C264.8 96 272 103.2 272 112V247.4L360.9 306.7C368.2 311.6 370.2 321.5 365.3 328.9C360.4 336.2 350.5 338.2 343.1 333.3L247.1 269.3C242.7 266.3 239.1 261.3 239.1 256L240 112zM256 0C397.4 0 512 114.6 512 256C512 397.4 397.4 512 256 512C114.6 512 0 397.4 0 256C0 114.6 114.6 0 256 0zM32 256C32 379.7 132.3 480 256 480C379.7 480 480 379.7 480 256C480 132.3 379.7 32 256 32C132.3 32 32 132.3 32 256z" />
    </symbol>
    <symbol id="chart-simple" viewBox="0 0 448 512">
        <path d="M240 32C266.5 32 288 53.49 288 80V432C288 458.5 266.5 480 240 480H208C181.5 480 160 458.5 160 432V80C160 53.49 181.5 32 208 32H240zM240 64H208C199.2 64 192 71.16 192 80V432C192 440.8 199.2 448 208 448H240C248.8 448 256 440.8 256 432V80C256 71.16 248.8 64 240 64zM80 224C106.5 224 128 245.5 128 272V432C128 458.5 106.5 480 80 480H48C21.49 480 0 458.5 0 432V272C0 245.5 21.49 224 48 224H80zM80 256H48C39.16 256 32 263.2 32 272V432C32 440.8 39.16 448 48 448H80C88.84 448 96 440.8 96 432V272C96 263.2 88.84 256 80 256zM320 144C320 117.5 341.5 96 368 96H400C426.5 96 448 117.5 448 144V432C448 458.5 426.5 480 400 480H368C341.5 480 320 458.5 320 432V144zM352 144V432C352 440.8 359.2 448 368 448H400C408.8 448 416 440.8 416 432V144C416 135.2 408.8 128 400 128H368C359.2 128 352 135.2 352 144z" />
    </symbol>
    <symbol id="weight-hanging" viewBox="0 0 512 512">
        <path d="M509.9 431.4l-68.43-267.7C436.2 142.7 417.9 128 397 128h-77.38c10.15-13.41 16.38-29.92 16.38-48c0-44.13-35.89-80-80.01-80S175.1 35.88 175.1 80c0 18.08 6.23 34.59 16.38 48H114.1C94.1 128 75.8 142.7 70.53 163.6l-68.45 267.8c-5.08 19.81-.75 41.13 11.6 57.03C25.29 503.4 42.53 512 60.95 512h390.1c18.42 0 35.66-8.594 47.27-23.59C510.7 472.5 514.1 451.2 509.9 431.4zM256 32c26.47 0 48.01 21.53 48.01 48S282.5 128 256 128S207.1 106.5 207.1 80S229.5 32 256 32zM473 468.8C467.4 476 459.6 480 451 480H60.95c-8.578 0-16.39-3.969-21.99-11.19c-6.33-8.156-8.518-19.16-5.877-29.47L101.6 171.5C103.3 164.7 108.8 160 114.1 160h282c6.205 0 11.74 4.719 13.46 11.56l68.45 267.8C481.6 449.6 479.4 460.7 473 468.8z" />
    </symbol>
    <symbol id="repeat" viewBox="0 0 512 512">
        <path d="M496 240C487.2 240 480 247.2 480 256c0 79.41-64.59 144-144 144H192L192 336c0-6.219-3.594-11.84-9.219-14.5C180.6 320.5 178.3 320 176 320c-3.672 0-7.312 1.25-10.25 3.719l-96 80C66.11 406.8 64 411.3 64 416s2.109 9.254 5.75 12.29l96 80c4.781 4 11.45 4.812 17.03 2.219C188.4 507.9 192 502.2 192 496L192 432H336c97.05 0 176-78.97 176-176C512 247.2 504.8 240 496 240zM160 461.8L105 416L160 370.2V461.8zM176 112l143.1-.002L320 176c0 6.219 3.594 11.84 9.219 14.5C331.4 191.5 333.7 192 336 192c3.672 0 7.312-1.25 10.25-3.719l96-80C445.9 105.2 448 100.7 448 95.1s-2.109-9.253-5.75-12.28l-96-80c-4.781-4-11.45-4.812-17.03-2.219C323.6 4.148 320 9.773 320 15.99L319.1 80H176C78.95 80 0 158.1 0 256c0 8.844 7.156 16 16 16S32 264.8 32 256C32 176.6 96.59 112 176 112zM352 50.15l55 45.85L352 141.8V50.15z" />
    </symbol>
    <symbol id="sliders" viewBox="0 0 512 512">
        <path d="M0 416C0 407.2 7.164 400 16 400H81.6C89.01 363.5 121.3 336 160 336C198.7 336 230.1 363.5 238.4 400H496C504.8 400 512 407.2 512 416C512 424.8 504.8 432 496 432H238.4C230.1 468.5 198.7 496 160 496C121.3 496 89.01 468.5 81.6 432H16C7.164 432 0 424.8 0 416V416zM208 416C208 389.5 186.5 368 160 368C133.5 368 112 389.5 112 416C112 442.5 133.5 464 160 464C186.5 464 208 442.5 208 416zM352 176C390.7 176 422.1 203.5 430.4 240H496C504.8 240 512 247.2 512 256C512 264.8 504.8 272 496 272H430.4C422.1 308.5 390.7 336 352 336C313.3 336 281 308.5 273.6 272H16C7.164 272 0 264.8 0 256C0 247.2 7.164 240 16 240H273.6C281 203.5 313.3 176 352 176zM400 256C400 229.5 378.5 208 352 208C325.5 208 304 229.5 304 256C304 282.5 325.5 304 352 304C378.5 304 400 282.5 400 256zM496 80C504.8 80 512 87.16 512 96C512 104.8 504.8 112 496 112H270.4C262.1 148.5 230.7 176 192 176C153.3 176 121 148.5 113.6 112H16C7.164 112 0 104.8 0 96C0 87.16 7.164 80 16 80H113.6C121 43.48 153.3 16 192 16C230.7 16 262.1 43.48 270.4 80H496zM144 96C144 122.5 165.5 144 192 144C218.5 144 240 122.5 240 96C240 69.49 218.5 48 192 48C165.5 48 144 69.49 144 96z" />
    </symbol>
</svg>